{"glyphs":{"0":{"ha":13,"x_min":0,"x_max":0,"o":""},"1":{"ha":13,"x_min":0,"x_max":0,"o":""},"2":{"ha":13,"x_min":0,"x_max":0,"o":""},"3":{"ha":13,"x_min":0,"x_max":0,"o":""},"4":{"ha":13,"x_min":0,"x_max":0,"o":""},"5":{"ha":13,"x_min":0,"x_max":0,"o":""},"6":{"ha":13,"x_min":0,"x_max":0,"o":""},"7":{"ha":13,"x_min":0,"x_max":0,"o":""},"8":{"ha":13,"x_min":0,"x_max":0,"o":""},"9":{"ha":13,"x_min":0,"x_max":0,"o":""}," ":{"ha":583,"x_min":0,"x_max":0,"o":""},"!":{"ha":13,"x_min":0,"x_max":0,"o":""},"\"":{"ha":13,"x_min":0,"x_max":0,"o":""},"#":{"ha":13,"x_min":0,"x_max":0,"o":""},"$":{"ha":13,"x_min":0,"x_max":0,"o":""},"%":{"ha":13,"x_min":0,"x_max":0,"o":""},"&":{"ha":1415,"x_min":14,"x_max":1403,"o":"m 708 -106 q 361 -106 708 -106 q 14 -97 14 -106 q 708 -87 14 -87 q 1403 -97 1403 -87 q 708 -106 1403 -106 z "},"(":{"ha":13,"x_min":0,"x_max":0,"o":""},")":{"ha":13,"x_min":0,"x_max":0,"o":""},"*":{"ha":13,"x_min":0,"x_max":0,"o":""},"+":{"ha":13,"x_min":0,"x_max":0,"o":""},",":{"ha":13,"x_min":0,"x_max":0,"o":""},"-":{"ha":13,"x_min":0,"x_max":0,"o":""},".":{"ha":13,"x_min":0,"x_max":0,"o":""},"/":{"ha":13,"x_min":0,"x_max":0,"o":""},":":{"ha":13,"x_min":0,"x_max":0,"o":""},";":{"ha":13,"x_min":0,"x_max":0,"o":""},"<":{"ha":13,"x_min":0,"x_max":0,"o":""},"=":{"ha":13,"x_min":0,"x_max":0,"o":""},">":{"ha":13,"x_min":0,"x_max":0,"o":""},"?":{"ha":13,"x_min":0,"x_max":0,"o":""},"@":{"ha":13,"x_min":0,"x_max":0,"o":""},"A":{"ha":963,"x_min":-7,"x_max":974,"o":"m 728 147 q 705 209 728 154 q 682 271 682 264 q 665 304 682 282 q 632 322 653 319 q 514 324 611 325 q 276 282 304 321 q 251 199 267 269 q 215 106 236 129 q 173 72 199 85 q 127 58 147 58 q 88 33 107 58 q 41 22 64 6 q 38 69 18 38 q 44 87 44 81 q 33 104 43 93 q 29 244 -6 147 q 167 664 97 431 q 300 1001 244 929 q 326 1042 324 1031 q 315 1065 329 1054 q 301 1094 301 1078 q 308 1108 301 1104 q 332 1111 314 1111 q 367 1099 363 1111 q 432 1090 372 1086 q 507 1083 492 1096 q 522 1076 515 1075 q 538 1092 528 1078 q 565 1109 547 1104 q 597 1110 583 1114 q 610 1094 610 1106 q 596 1065 610 1078 q 584 1041 582 1054 q 608 997 586 1028 q 756 675 660 926 q 843 449 771 632 q 906 308 868 379 q 939 132 972 178 q 936 89 925 111 q 932 22 957 42 q 917 16 924 15 q 900 26 911 17 q 882 54 882 43 q 828 76 882 76 q 762 100 794 76 q 728 147 729 124 m 579 974 q 510 1021 510 1060 q 494 994 510 1003 q 483 984 483 988 q 493 974 483 981 q 511 953 507 963 q 558 903 515 940 q 608 867 600 867 q 625 824 618 867 q 729 467 628 788 q 799 315 742 426 q 868 200 857 204 q 885 163 881 196 q 897 129 888 131 q 908 153 906 128 q 919 190 911 181 q 882 308 935 211 q 819 449 858 347 q 640 897 667 860 q 579 974 619 922 m 465 967 q 458 974 465 974 q 444 968 450 975 q 438 950 438 964 q 440 941 438 942 q 451 947 443 940 q 465 967 465 960 m 354 822 q 328 838 336 836 q 315 828 319 839 q 274 636 300 785 q 247 450 247 488 q 233 349 247 388 q 225 288 211 285 q 228 289 226 289 q 252 326 239 296 q 269 383 265 356 q 292 442 276 424 q 320 492 313 469 q 318 522 328 515 q 340 667 307 529 l 375 806 l 354 822 m 492 779 q 424 782 461 807 q 383 684 410 771 q 356 561 357 597 q 378 522 356 532 q 413 517 401 514 q 492 524 421 521 q 522 525 511 525 q 544 528 533 525 q 560 534 556 532 q 568 545 565 536 q 570 561 571 554 q 566 585 569 568 q 558 617 563 603 q 543 661 553 632 q 492 779 508 765 m 369 494 q 366 504 369 500 q 358 510 363 508 q 351 507 354 511 q 347 494 347 503 q 353 479 347 482 q 364 481 358 476 q 369 494 369 486 m 583 475 q 543 481 571 501 q 492 476 528 469 q 451 475 456 482 q 453 463 446 468 q 475 457 461 457 q 533 418 490 457 q 589 376 561 390 q 625 369 617 361 q 583 475 631 376 z "},"B":{"ha":718,"x_min":14,"x_max":708,"o":"m 63 1100 q 71 1110 61 1107 q 126 1103 100 1118 l 133 1097 q 173 1086 140 1089 q 301 1083 206 1083 q 430 1086 397 1083 q 469 1097 463 1089 q 493 1108 475 1104 q 526 1111 511 1113 q 542 1104 542 1110 q 530 1085 542 1093 q 507 1082 518 1078 q 497 1085 499 1085 l 506 1072 q 526 1057 517 1057 q 561 1035 535 1057 q 574 1010 585 1015 q 521 997 564 1004 q 479 985 479 990 q 510 950 479 978 q 550 883 540 925 q 578 799 558 853 q 601 708 599 743 q 588 646 603 674 q 579 607 568 613 q 588 588 588 603 q 584 578 588 578 q 568 589 581 578 q 464 622 497 638 q 442 599 442 613 l 442 578 q 468 563 442 572 q 541 511 506 549 q 603 424 576 474 l 635 357 l 615 306 q 607 243 597 254 q 597 208 617 229 q 585 185 575 185 q 620 206 599 185 q 642 240 642 226 q 660 261 642 251 q 685 264 678 271 q 663 207 692 257 q 599 114 633 157 q 586 76 576 79 q 607 66 599 76 q 615 40 615 56 q 596 26 615 31 q 553 43 576 19 q 520 63 535 61 q 442 58 506 64 q 254 51 365 51 q 165 50 185 53 q 132 33 146 47 q 94 22 110 13 q 83 60 78 31 q 78 101 90 86 q 75 104 76 103 q 42 202 49 138 q 25 622 36 267 q 24 643 24 636 l 14 953 l 33 989 q 81 1047 54 1026 l 107 1068 l 88 1078 q 63 1100 68 1088 m 215 885 q 193 918 215 893 l 171 943 l 169 900 q 167 864 169 871 q 150 860 164 857 q 133 854 136 861 q 144 578 129 838 q 156 310 154 431 q 168 203 157 203 q 179 213 179 203 q 210 240 179 222 q 235 260 233 254 q 228 286 238 265 q 215 465 213 314 q 201 731 217 624 q 189 831 189 811 q 200 861 189 850 q 215 885 215 878 m 425 831 q 393 853 407 849 q 338 857 379 857 q 285 853 299 857 q 257 835 271 849 q 242 815 246 824 q 235 791 238 806 q 233 744 233 776 q 237 685 233 694 q 258 672 240 676 q 343 668 278 668 l 404 669 l 428 718 q 450 785 450 764 q 425 831 450 806 m 478 757 q 483 757 478 757 q 488 771 488 757 q 478 785 488 785 q 469 771 469 785 q 478 757 469 757 m 263 613 q 259 638 267 638 q 243 615 251 639 q 234 589 233 593 q 246 585 235 585 q 263 613 260 585 m 252 513 q 257 513 252 513 q 261 522 261 513 q 252 531 261 531 q 243 522 243 531 q 252 513 243 513 m 443 439 q 344 448 425 449 q 254 438 264 447 q 249 370 242 425 q 272 297 256 315 q 299 280 285 283 q 354 276 314 276 q 412 281 394 276 q 447 299 429 285 q 483 347 476 321 q 475 400 488 371 q 443 439 463 429 m 257 185 q 269 217 269 213 q 256 222 269 222 q 226 219 243 222 q 201 210 210 215 q 191 199 190 201 q 206 192 192 196 q 225 172 225 186 q 240 163 225 149 q 257 185 249 171 m 488 175 q 464 194 478 194 q 464 178 449 194 q 469 172 467 175 q 496 157 497 142 q 488 175 494 163 m 603 967 q 615 975 607 975 q 630 961 624 975 q 629 942 636 947 q 618 942 626 938 q 604 955 610 947 q 603 967 599 963 m 636 911 q 635 928 633 929 q 646 917 636 928 q 658 895 654 907 q 660 875 661 883 q 651 867 658 867 q 642 878 642 867 q 636 911 642 886 m 644 824 q 650 839 640 839 q 663 819 658 838 q 660 806 667 804 q 644 824 649 808 m 651 711 q 646 711 651 711 q 642 730 642 711 q 651 749 642 749 q 660 730 660 749 q 651 711 660 711 m 624 544 q 615 558 615 549 q 624 563 615 567 q 633 547 633 557 q 624 544 633 539 m 647 507 q 650 521 643 521 q 664 507 657 521 q 661 494 669 494 q 647 507 654 494 m 669 478 q 683 472 669 489 q 689 439 708 439 q 679 445 683 439 q 672 460 675 451 q 669 478 669 469 m 697 294 q 692 294 697 294 q 688 322 688 294 q 697 349 688 349 q 706 322 706 349 q 697 294 706 294 z "},"C":{"ha":757,"x_min":11,"x_max":761,"o":"m 171 1094 q 178 1107 161 1104 q 401 1111 206 1111 l 646 1111 l 642 1090 q 665 1042 639 1069 q 715 982 690 1018 q 739 933 739 946 q 722 932 739 907 l 711 950 q 622 1020 697 979 q 529 1049 547 1061 q 489 1039 513 1039 q 469 1029 469 1039 q 493 1013 471 1017 q 519 992 515 1010 q 571 947 524 976 q 635 903 617 922 q 678 871 653 883 q 701 863 696 861 q 713 881 706 864 q 731 903 721 903 q 733 878 739 901 q 679 788 721 829 q 613 767 658 767 q 542 778 567 767 q 481 829 518 789 q 420 874 444 868 q 364 858 396 879 q 296 763 318 828 q 271 585 274 697 q 265 476 268 476 q 257 483 264 476 q 246 563 244 492 q 238 646 249 635 q 238 664 228 658 q 252 708 247 671 q 249 753 257 744 q 245 774 240 764 q 263 785 250 785 q 278 818 290 785 q 231 871 264 853 q 207 880 213 881 q 194 867 201 879 q 186 831 186 850 q 194 807 186 813 q 203 792 207 800 q 186 785 200 785 q 178 783 182 785 q 172 781 175 782 q 168 777 169 779 q 167 774 167 775 q 169 685 157 685 q 165 671 178 685 q 151 592 151 658 q 152 551 151 567 q 154 523 153 535 q 158 505 156 511 q 165 497 161 499 q 174 494 168 494 q 182 492 182 494 q 174 479 182 489 q 164 428 158 467 q 178 382 171 388 q 186 358 186 371 q 263 233 186 314 q 318 185 310 185 q 337 216 326 185 q 345 278 347 247 q 319 308 343 308 q 302 314 307 308 q 296 335 297 319 q 279 374 293 363 q 271 401 267 383 q 267 426 278 419 q 258 449 257 432 q 271 467 260 467 q 289 438 282 467 q 325 360 296 407 q 369 308 354 313 q 382 290 383 306 q 392 269 381 275 q 411 274 407 263 q 426 285 414 285 q 443 276 438 286 l 446 278 q 464 306 443 290 q 499 350 485 322 q 524 376 514 376 q 550 392 533 376 q 610 408 571 410 q 624 403 624 407 q 621 399 624 401 q 618 356 613 388 q 615 321 624 321 q 594 289 607 321 q 556 226 582 254 l 529 196 l 550 190 q 599 194 572 185 q 631 194 625 204 q 663 188 636 185 q 689 200 689 190 q 704 224 689 213 q 719 315 733 247 q 699 366 711 354 q 668 365 686 378 q 638 365 649 354 q 639 385 628 375 q 644 401 650 394 q 649 407 642 408 q 706 381 674 406 q 714 372 711 376 q 739 229 760 314 q 720 182 732 201 q 683 138 708 163 q 647 97 651 106 q 653 74 643 88 q 666 42 668 54 q 647 21 664 31 q 626 17 633 14 q 607 35 619 19 q 585 55 594 51 q 554 54 576 58 q 479 31 524 49 q 440 18 454 19 q 401 22 425 17 q 331 38 367 32 q 283 57 299 43 q 265 65 271 67 q 239 42 258 63 q 206 16 217 18 q 183 33 194 14 q 180 62 172 47 q 206 76 188 76 q 218 83 218 79 q 147 160 206 92 q 79 246 89 229 q 34 376 47 303 q 15 593 21 449 q 17 745 13 710 q 53 871 22 781 q 101 965 67 914 q 163 1035 136 1017 q 171 1094 201 1060 m 458 1029 q 444 1039 458 1039 q 431 1035 431 1039 q 449 1025 431 1031 q 458 1029 458 1022 m 304 989 q 300 999 304 994 q 290 1003 296 1003 q 286 983 272 1003 q 296 975 292 976 q 304 989 304 975 m 263 929 q 247 939 258 939 q 261 921 238 939 q 303 908 297 890 q 304 911 304 910 q 286 921 304 921 q 263 929 268 921 m 331 867 q 322 875 331 875 q 303 861 314 875 q 297 842 293 847 q 317 847 303 836 q 331 867 331 858 m 703 829 q 694 842 703 838 q 682 842 686 847 q 676 827 674 833 q 689 821 679 821 q 703 829 703 821 m 458 167 q 458 181 471 167 q 453 185 454 185 q 449 176 449 185 q 458 167 449 167 z "},"D":{"ha":779,"x_min":0,"x_max":771,"o":"m 32 1099 q 61 1110 43 1111 q 93 1097 79 1110 q 157 1088 107 1082 q 341 1099 257 1097 q 439 1094 425 1101 q 481 1097 458 1083 q 513 1108 492 1104 q 550 1111 533 1113 q 567 1103 567 1110 q 554 1086 567 1093 q 526 1079 542 1079 q 513 1075 518 1079 q 508 1065 508 1071 q 532 1053 508 1053 q 588 1024 560 1050 q 633 990 619 994 q 649 971 649 983 q 644 960 649 963 q 635 960 640 958 q 621 957 629 961 q 547 990 599 943 q 516 1007 529 1007 q 503 989 503 1007 q 530 951 503 979 q 588 900 557 922 q 628 822 601 888 q 651 740 656 756 q 657 692 647 722 q 671 522 667 661 q 671 398 674 429 q 656 333 668 367 q 648 274 639 283 q 625 224 657 264 q 599 179 588 179 q 661 235 611 179 q 725 286 718 297 q 724 264 732 276 q 708 229 715 253 q 685 183 704 206 q 624 99 633 122 q 635 58 614 75 q 648 28 651 44 q 624 7 644 13 q 601 7 610 3 q 581 25 592 11 q 556 46 567 43 q 511 43 546 49 q 444 28 460 36 q 304 17 428 19 q 168 10 182 17 q 122 13 158 1 q 90 19 100 19 q 64 8 79 18 q 26 4 40 -7 q 29 51 0 25 l 31 53 q 44 148 43 64 q 40 724 46 232 q 40 729 40 728 q 44 1006 39 972 q 36 1063 51 1039 q 32 1099 21 1085 m 369 992 q 385 1000 374 981 q 386 1025 394 1019 q 375 1023 381 1028 q 368 1009 369 1018 q 369 992 367 1000 m 461 1015 q 428 1021 446 1021 q 415 1014 414 1021 q 447 999 418 1003 q 454 997 450 997 q 475 1006 478 997 q 461 1015 472 1011 m 240 965 q 239 989 253 965 q 235 993 236 993 q 231 979 231 993 q 240 965 231 965 m 224 561 l 221 861 l 190 882 q 154 894 160 903 q 154 688 149 885 q 168 444 160 490 q 181 288 175 394 q 207 125 185 186 q 240 58 229 58 q 238 93 247 58 q 238 178 228 131 q 238 244 247 226 q 224 561 228 261 m 431 835 q 358 847 404 847 q 315 842 329 847 q 285 822 301 838 l 258 796 l 258 532 q 259 396 258 443 q 261 316 260 349 q 265 272 263 283 q 272 258 267 261 q 354 253 285 247 q 424 267 396 257 q 472 296 451 276 q 505 345 493 315 q 526 422 517 375 q 539 550 542 483 q 524 674 536 617 q 486 774 511 731 q 431 835 461 818 m 385 167 q 390 167 385 167 q 394 181 394 167 q 385 194 394 194 q 376 181 376 194 q 385 167 376 167 m 667 925 q 676 929 667 929 q 685 916 685 929 q 692 903 685 903 q 703 889 696 903 q 720 854 711 875 q 735 815 729 833 q 733 794 740 796 q 713 821 724 792 q 708 840 710 832 q 710 847 707 847 q 703 863 714 847 q 680 897 693 878 q 667 925 667 917 m 733 738 q 736 775 728 775 q 747 756 742 775 q 754 718 753 736 q 753 694 756 700 q 740 706 746 688 q 733 738 738 715 m 758 613 q 753 613 758 613 q 749 631 749 613 q 758 649 749 649 q 767 631 767 649 q 758 613 767 613 m 746 515 q 759 521 749 521 q 763 474 769 521 q 757 396 757 421 q 755 374 757 381 q 747 369 753 368 q 739 440 735 374 q 746 515 742 508 m 728 329 q 742 349 732 349 q 746 329 753 349 q 733 315 742 318 q 728 329 724 311 z "},"E":{"ha":697,"x_min":13,"x_max":685,"o":"m 46 1097 q 49 1108 43 1106 q 75 1111 54 1111 q 118 1103 108 1111 q 286 1085 128 1094 q 503 1081 444 1075 q 574 1100 569 1088 q 613 1111 578 1111 q 642 1108 639 1111 q 638 1089 646 1104 q 633 1066 631 1074 q 646 1044 635 1058 q 672 995 658 1031 q 685 939 685 960 q 674 932 685 919 q 663 964 667 944 q 619 1022 653 1014 q 481 1011 586 1031 q 293 982 301 979 q 285 976 285 983 q 291 967 285 971 q 312 960 297 963 q 349 955 326 957 q 408 950 372 953 q 515 938 481 947 q 574 908 549 929 q 588 899 581 903 q 603 897 594 896 q 617 899 611 897 q 633 903 622 900 q 649 908 643 907 q 668 903 668 914 q 624 860 665 885 q 553 837 590 840 q 500 847 515 833 q 483 856 489 858 q 476 843 476 854 q 463 831 476 833 q 406 831 450 829 q 347 831 367 832 q 313 821 326 829 q 297 799 300 813 q 294 757 294 785 q 313 683 294 699 q 399 667 332 667 q 458 663 449 667 q 467 643 467 660 q 463 629 467 635 q 451 619 460 624 q 424 610 443 615 q 355 601 389 599 q 321 615 321 603 q 293 640 321 626 q 271 664 265 657 q 267 735 276 674 q 290 851 253 836 q 303 861 301 856 q 299 870 306 867 q 282 871 293 874 q 253 885 261 864 q 219 908 243 904 q 199 903 204 910 q 189 872 194 897 q 185 797 183 836 q 172 753 186 760 q 164 705 158 749 q 190 617 169 661 q 222 533 211 571 q 238 494 232 494 q 265 513 242 494 q 317 531 288 531 q 356 540 344 531 q 426 538 367 551 q 494 510 486 525 q 518 497 504 493 q 529 497 531 503 l 511 475 q 489 458 500 463 q 456 450 478 453 q 385 446 435 447 q 310 430 325 443 q 294 367 294 417 q 295 335 294 346 q 302 314 296 325 q 315 300 308 303 q 342 294 321 297 q 385 290 364 290 q 447 289 406 289 q 530 288 504 289 q 571 283 556 286 q 599 271 586 279 q 647 232 626 254 q 667 197 667 210 q 656 188 667 179 q 643 210 649 194 q 599 253 633 236 l 565 271 l 551 251 q 503 231 536 231 q 443 221 471 231 q 363 208 422 213 q 250 224 246 204 q 275 240 251 232 q 288 256 297 251 q 276 282 276 260 q 267 303 276 303 q 263 308 264 303 q 261 322 261 314 q 263 338 261 329 q 266 354 264 347 q 271 364 268 361 q 267 386 276 369 q 269 433 257 403 q 300 471 282 464 q 307 482 321 479 q 282 481 299 483 q 256 457 260 474 q 236 439 250 439 q 222 430 222 439 q 232 421 222 421 q 238 406 242 421 q 194 385 236 390 q 160 378 167 382 q 156 358 154 374 q 172 275 157 324 q 190 211 188 226 q 199 181 193 188 q 229 172 206 175 q 281 161 263 167 q 417 147 299 157 q 557 139 536 138 q 565 140 560 139 q 576 141 571 140 q 587 142 581 142 q 598 142 593 143 q 607 142 603 142 q 614 140 611 142 q 617 135 617 138 q 646 96 618 125 q 671 26 685 57 q 625 24 660 0 q 614 33 619 28 q 583 53 597 50 q 521 53 568 56 q 397 35 446 47 q 317 31 340 21 q 201 29 267 50 q 149 29 165 18 q 69 19 107 54 q 33 10 47 0 q 14 40 14 21 q 31 64 14 60 q 46 74 43 68 q 46 99 49 81 q 35 347 38 147 q 39 739 33 546 q 44 933 42 879 q 51 1010 47 988 q 67 1050 56 1032 q 69 1083 76 1082 q 46 1097 53 1083 m 104 1054 q 104 1069 115 1065 q 90 1065 94 1074 q 90 1049 83 1054 q 104 1054 96 1044 m 276 965 l 275 983 q 269 982 274 983 q 256 978 265 981 q 242 974 247 976 q 219 963 225 969 q 223 952 214 957 q 250 947 232 947 q 271 951 265 947 q 276 965 276 956 m 344 876 q 343 860 338 865 q 356 863 351 853 q 356 876 358 868 q 351 883 353 883 q 344 876 349 883 m 499 258 q 510 258 499 258 q 521 267 521 258 q 499 276 521 276 q 476 267 476 276 q 499 258 476 258 m 316 236 q 316 233 316 236 q 320 227 315 231 q 331 226 325 224 q 336 234 336 229 q 331 243 336 239 q 322 244 326 247 q 316 236 317 242 m 476 640 q 480 653 476 651 q 494 649 483 654 q 508 634 510 640 q 489 625 507 628 q 480 628 483 624 q 476 640 476 632 m 531 567 q 540 575 531 575 q 549 561 549 575 q 536 556 549 544 q 531 567 531 561 m 642 156 q 667 144 667 182 q 659 123 667 126 q 640 133 651 119 q 642 156 631 146 z "},"F":{"ha":639,"x_min":8,"x_max":628,"o":"m 19 1099 q 79 1086 46 1131 q 103 1065 92 1068 q 156 1061 115 1061 q 361 1064 181 1063 l 508 1065 l 519 1089 q 560 1111 531 1111 q 588 1107 585 1111 q 579 1079 590 1103 q 574 1055 572 1064 q 589 1029 576 1046 q 603 992 613 997 q 589 1000 599 990 q 547 1006 582 1007 q 504 1010 513 1004 q 474 1013 490 1022 q 386 989 456 1001 q 306 981 317 976 q 261 968 293 985 l 232 953 l 369 947 q 460 942 431 944 q 508 935 490 939 q 539 922 525 931 l 571 904 q 608 942 589 924 l 608 924 q 601 903 608 915 q 584 881 594 892 q 563 864 574 871 q 543 857 551 857 q 525 846 528 857 q 408 832 521 835 q 286 817 308 828 q 264 760 264 806 q 256 721 264 721 q 238 745 249 721 q 226 789 226 769 q 203 829 226 810 q 184 845 186 840 q 190 856 182 850 q 199 866 200 863 q 186 879 197 869 q 161 885 168 892 q 148 823 150 875 q 154 747 146 771 q 159 722 160 729 q 150 710 158 714 q 142 697 142 704 q 151 668 142 690 q 182 617 164 636 q 197 587 193 606 q 201 524 200 568 q 193 438 204 451 q 217 222 172 411 q 254 132 238 132 q 268 143 261 135 q 271 288 282 163 q 243 413 260 413 q 242 444 238 413 q 238 475 246 475 q 238 494 224 475 q 246 503 243 503 q 292 526 254 503 l 329 549 l 393 529 q 465 506 447 513 q 473 511 468 504 q 482 529 478 518 q 501 557 492 557 q 508 539 508 556 q 483 494 508 522 q 451 471 467 476 q 392 463 436 465 q 363 460 371 461 q 341 457 354 460 q 323 453 328 454 q 310 446 318 453 q 301 435 303 439 q 295 418 299 432 q 292 397 292 404 q 292 367 292 389 q 292 331 292 344 q 294 283 293 317 q 289 122 300 142 q 283 105 282 111 q 293 88 283 99 q 308 61 307 72 q 294 39 308 50 q 264 38 279 28 q 181 47 247 47 q 124 44 140 47 q 97 31 107 40 q 64 22 81 13 q 46 49 47 31 q 60 75 44 67 q 70 87 69 81 q 64 113 71 93 q 54 293 54 146 q 36 634 54 419 q 15 915 18 849 q 15 980 13 963 q 31 1015 18 997 q 39 1044 50 1042 q 17 1069 24 1050 q 19 1099 10 1088 m 254 897 q 246 911 254 911 q 232 896 238 911 q 240 885 229 885 q 250 888 246 885 q 254 897 254 892 m 291 857 q 295 857 291 857 q 300 866 300 857 q 291 875 300 875 q 282 866 282 875 q 291 857 282 857 m 313 486 q 300 489 306 497 l 292 469 q 284 450 283 451 q 299 461 285 449 q 313 486 318 478 m 617 957 q 613 957 617 957 q 608 966 608 957 q 617 975 608 975 q 626 966 626 975 q 617 957 626 957 m 243 706 q 282 688 260 708 q 312 670 297 674 q 365 668 326 667 q 438 656 426 671 q 468 638 449 640 q 489 617 485 635 q 489 603 490 603 q 478 615 488 603 q 462 628 468 628 q 439 622 456 629 q 365 603 410 608 q 290 602 321 597 q 261 619 258 607 q 246 660 264 629 q 228 694 229 686 q 243 706 228 701 m 417 631 q 422 631 417 631 q 426 640 426 631 q 417 649 426 649 q 408 640 408 649 q 417 631 408 631 m 381 621 q 386 621 381 621 q 390 630 390 621 q 381 639 390 639 q 372 630 372 639 q 381 621 372 621 m 190 686 q 204 685 190 697 q 213 668 221 672 q 193 678 203 664 l 190 686 z "},"G":{"ha":715,"x_min":11,"x_max":711,"o":"m 63 1093 q 84 1109 78 1110 q 113 1088 90 1108 l 136 1065 l 185 1088 q 245 1108 218 1104 q 358 1111 272 1111 q 470 1108 444 1111 q 521 1092 496 1104 l 556 1071 l 576 1092 q 633 1108 610 1121 q 632 1064 657 1094 q 628 1060 631 1063 l 607 1039 l 628 1011 q 647 979 647 985 q 667 949 647 972 q 677 928 672 942 q 685 899 682 914 q 690 870 689 883 q 690 848 692 857 q 683 839 688 839 q 677 843 681 839 q 671 855 674 847 q 667 873 668 863 q 665 896 665 883 q 659 924 665 910 q 643 948 653 939 q 624 957 633 957 q 597 983 613 957 q 568 1006 583 1010 q 542 1017 554 999 q 530 1028 533 1026 q 521 1021 526 1029 q 453 1026 510 1003 q 438 1026 438 1032 q 467 1003 438 1017 q 510 956 494 990 q 568 889 526 921 q 615 831 610 857 q 633 795 621 808 q 657 789 646 782 q 663 788 660 790 q 665 779 665 786 q 643 757 665 769 q 618 739 621 744 q 561 725 615 729 q 511 728 522 724 q 479 754 500 732 q 444 817 449 785 q 397 876 436 860 q 308 871 357 892 q 277 851 289 863 q 256 814 265 839 q 240 751 242 785 q 243 583 239 718 q 257 363 250 389 q 346 285 275 285 q 384 291 371 285 q 418 317 397 297 q 442 348 436 336 q 446 378 447 360 q 438 403 444 397 q 413 410 432 408 q 336 465 367 415 q 333 542 306 515 q 347 569 347 554 q 377 599 347 592 q 503 610 407 607 q 607 609 585 611 q 629 599 629 607 q 638 585 629 585 q 647 594 647 585 q 663 603 647 603 q 672 600 672 603 q 661 585 672 597 q 619 567 644 567 q 583 549 593 567 q 557 531 574 531 q 531 518 540 531 q 542 492 519 506 q 591 372 579 467 q 574 238 603 278 q 568 213 556 213 q 612 243 583 213 q 657 308 640 274 q 671 344 667 329 q 677 381 675 360 q 679 442 679 403 q 688 529 679 529 q 696 510 690 531 q 697 372 710 458 q 657 254 683 286 q 654 238 647 242 q 646 217 658 231 q 640 201 639 206 q 654 188 642 196 q 670 145 685 167 q 619 138 656 124 q 596 142 603 143 q 579 125 589 140 q 569 112 575 118 q 554 101 563 106 q 541 93 546 96 q 525 85 536 90 q 511 78 514 79 q 450 53 476 58 q 353 49 424 49 q 280 49 303 47 q 241 55 257 50 q 201 72 225 60 q 122 125 153 96 q 83 142 93 153 q 35 143 64 122 q 24 157 24 151 q 39 182 24 163 q 53 209 53 201 q 42 240 53 217 q 31 280 35 253 q 25 358 28 307 q 18 517 22 410 q 16 822 11 743 q 43 949 21 900 q 78 1013 67 999 q 83 1030 85 1022 q 67 1051 81 1038 q 51 1074 51 1068 q 63 1093 50 1079 m 588 1047 q 595 1047 588 1047 q 601 1056 601 1047 q 588 1065 601 1065 q 575 1056 575 1065 q 588 1047 575 1047 m 214 893 q 176 921 183 921 q 172 882 168 921 q 174 851 176 856 q 157 850 172 846 q 141 851 143 854 q 142 826 139 847 q 136 785 146 796 q 133 746 133 778 q 133 672 132 714 q 138 578 135 631 q 144 486 142 526 q 149 410 147 446 q 151 371 151 374 q 161 294 153 321 q 176 247 169 263 q 191 226 183 232 q 206 225 199 219 q 225 244 213 231 q 236 269 236 261 q 226 301 236 278 q 208 586 213 338 q 208 808 206 774 q 224 851 210 842 l 243 865 l 214 893 m 468 307 q 475 311 471 303 q 479 329 481 324 q 472 325 478 333 q 471 321 472 322 q 468 307 464 311 m 290 206 q 259 221 275 218 q 236 215 243 224 q 235 203 232 210 q 249 191 239 197 q 268 185 258 185 q 291 167 286 185 q 308 149 296 149 q 313 178 326 149 q 290 206 304 193 m 411 149 q 403 163 411 158 q 393 159 393 168 q 403 144 393 150 q 411 149 411 140 z "},"H":{"ha":763,"x_min":10,"x_max":750,"o":"m 18 1101 q 51 1110 25 1113 q 86 1097 78 1108 q 113 1094 97 1085 q 167 1097 132 1107 q 231 1061 203 1086 l 264 1031 l 261 874 q 260 744 258 778 q 271 704 263 711 q 372 692 285 693 q 472 703 458 692 q 481 722 478 707 q 485 771 483 738 q 486 869 486 804 l 486 1026 l 517 1053 q 574 1094 551 1086 q 632 1097 596 1103 q 681 1101 675 1092 q 719 1111 688 1111 q 750 1101 750 1111 q 735 1074 750 1090 q 722 983 725 1063 q 717 592 718 903 q 708 106 714 136 q 715 67 704 85 q 717 33 726 49 q 671 31 696 1 q 647 45 661 42 q 597 49 632 49 q 545 54 557 49 q 510 88 533 60 l 478 126 l 483 271 q 485 293 483 279 q 485 335 485 322 q 485 367 486 347 q 485 392 485 386 q 481 410 485 399 q 476 424 478 422 q 465 433 474 426 q 453 439 457 439 q 435 440 449 439 q 412 442 421 442 q 382 440 403 442 q 376 440 378 440 q 372 440 375 440 q 365 440 368 440 q 268 433 272 439 q 260 271 264 429 q 253 138 257 167 q 236 94 249 108 q 128 51 192 44 q 95 51 106 54 q 72 33 85 47 q 54 16 61 18 q 33 21 47 14 q 15 47 19 29 q 22 72 11 64 q 29 546 32 76 q 35 1032 26 1017 q 28 1071 43 1047 q 18 1101 13 1093 m 233 1017 q 210 1039 222 1039 q 183 1008 197 1039 q 168 953 168 978 q 160 908 168 932 q 160 815 151 885 q 175 494 168 735 q 196 224 185 244 q 215 203 210 203 q 221 288 222 203 q 220 460 219 360 q 222 653 221 560 q 227 824 224 747 q 233 924 231 900 q 233 1017 243 993 m 681 1029 q 638 1033 647 1042 q 644 993 628 1024 q 653 966 653 975 q 642 937 653 957 q 630 865 632 917 q 629 631 628 813 q 646 250 632 351 q 661 151 656 171 q 675 131 667 131 q 681 451 681 131 q 699 972 683 958 q 703 1003 710 983 q 681 1029 697 1024 m 521 688 q 520 692 522 690 q 514 693 518 693 q 506 669 504 693 q 507 651 506 653 l 514 661 q 521 688 521 679 m 453 646 q 447 661 463 661 q 425 650 438 661 q 410 624 413 640 q 411 554 408 607 q 425 478 415 478 q 442 560 436 478 q 453 646 447 636 m 511 519 q 510 536 515 531 q 506 532 506 540 q 506 525 504 529 q 507 516 506 518 q 511 519 508 514 m 218 149 q 210 185 243 150 q 204 167 204 185 q 208 154 204 160 q 218 149 213 149 z "},"I":{"ha":693,"x_min":10,"x_max":685,"o":"m 14 1099 q 26 1110 14 1107 q 55 1109 39 1113 q 78 1097 71 1106 q 104 1089 90 1083 q 336 1101 124 1096 q 563 1100 549 1107 q 589 1101 578 1090 q 624 1111 599 1111 q 644 1108 642 1111 q 640 1093 647 1106 q 644 1046 631 1075 q 656 1016 651 1031 q 658 992 660 1001 q 650 983 657 983 q 639 1013 642 983 q 630 1038 636 1032 q 604 1050 624 1044 q 558 1050 572 1058 q 479 1021 546 1042 q 428 1001 442 1008 q 415 985 414 993 q 458 968 418 969 q 519 963 486 967 q 580 953 553 958 q 613 943 607 947 q 635 953 624 936 q 653 957 650 974 q 646 925 656 944 q 608 888 635 903 q 558 874 582 872 q 497 860 528 875 q 463 825 467 844 q 465 583 457 800 q 465 576 465 581 q 482 369 472 399 q 543 339 492 339 q 547 339 546 339 q 619 321 581 339 q 658 286 658 303 q 647 274 658 278 q 599 269 636 271 q 524 254 539 268 q 501 241 507 240 q 492 256 496 242 q 461 279 489 272 q 438 291 442 283 q 433 336 433 299 q 440 399 433 389 q 440 608 446 408 q 434 779 438 743 q 419 829 431 815 q 411 847 401 847 q 426 885 421 847 q 421 935 431 924 q 402 940 411 947 q 376 900 393 933 q 362 863 363 875 q 369 828 361 851 q 369 772 381 793 q 368 585 356 749 q 368 399 381 422 q 365 347 360 378 q 385 282 369 315 q 418 238 400 249 q 458 221 446 221 q 549 197 475 221 q 622 167 622 172 q 632 158 622 158 q 638 171 642 158 q 646 194 632 185 q 658 232 658 206 q 669 258 658 260 q 678 247 675 257 q 678 197 683 235 q 668 159 676 174 q 638 125 660 144 q 604 100 617 106 q 576 99 592 94 q 542 91 554 103 q 535 60 529 79 q 526 31 540 43 q 497 28 513 18 q 474 67 483 35 l 464 99 l 364 96 q 254 85 263 92 q 238 50 243 76 q 220 20 233 26 q 189 26 207 14 q 177 40 178 35 q 185 58 176 46 q 186 86 197 78 q 136 94 175 94 q 71 119 100 94 q 44 149 51 136 q 35 196 38 163 q 43 268 31 238 q 83 315 56 299 q 154 331 111 331 q 213 346 193 331 l 235 360 l 229 593 q 211 831 224 801 q 172 853 203 851 q 165 853 169 853 q 107 857 124 854 q 79 867 90 860 q 49 892 68 874 q 15 947 19 922 q 26 1024 11 971 q 35 1060 35 1050 q 26 1076 35 1069 q 14 1099 14 1085 z "},"J":{"ha":696,"x_min":11,"x_max":688,"o":"m 394 1086 q 385 1104 385 1097 q 534 1111 385 1111 q 683 1104 683 1111 q 674 1086 683 1097 q 665 900 664 1078 q 676 550 665 722 q 675 328 686 388 q 635 219 667 282 q 579 133 604 157 q 558 106 560 115 q 571 85 556 97 q 583 57 585 74 q 565 35 582 40 q 519 54 546 29 l 494 79 l 424 63 q 353 51 378 51 q 282 57 329 50 q 217 65 231 65 q 189 49 204 64 q 152 34 171 32 q 132 51 133 36 q 146 88 131 67 q 153 109 157 101 q 115 149 150 117 q 15 324 24 231 q 17 370 13 358 q 51 414 22 382 q 91 450 78 443 q 129 457 104 457 q 205 439 164 457 q 256 400 246 421 q 275 346 265 379 q 327 294 289 301 q 399 322 365 288 l 425 350 l 424 488 q 411 793 421 643 q 393 958 401 943 q 393 1028 382 976 q 394 1086 404 1076 m 643 986 q 623 1019 638 1015 q 588 1001 608 1024 q 578 985 582 994 q 573 944 575 976 q 570 863 571 911 q 568 714 569 815 q 574 433 567 444 q 572 353 581 422 q 568 293 567 308 q 579 268 569 278 q 639 321 611 235 q 651 392 649 353 q 650 531 653 431 q 639 799 647 664 q 640 929 632 904 q 643 986 649 950 m 213 403 q 190 413 193 413 q 181 403 182 413 q 186 385 179 393 q 193 335 193 372 q 207 265 193 300 q 233 231 221 231 q 253 251 249 231 q 244 285 257 271 q 231 347 231 300 q 227 385 231 374 q 213 403 224 397 m 339 167 q 330 185 339 185 q 321 172 321 185 q 331 154 321 158 q 339 167 338 157 z "},"K":{"ha":696,"x_min":13,"x_max":685,"o":"m 588 903 q 617 921 596 903 q 646 939 638 939 q 654 918 664 939 q 638 899 649 907 q 608 864 618 885 q 500 681 553 763 q 454 575 454 608 q 517 419 454 549 q 608 256 579 290 q 637 199 626 232 q 643 144 647 165 q 661 108 638 125 q 683 87 681 96 q 669 63 685 78 q 653 53 660 53 q 635 61 647 53 q 611 71 621 71 q 579 63 601 71 q 521 47 542 49 q 476 67 500 46 q 431 124 451 88 q 371 239 410 161 q 271 403 292 399 q 254 374 260 406 q 247 261 249 343 q 241 145 244 165 q 218 106 238 125 q 166 72 197 83 q 110 64 135 60 q 64 53 88 69 q 40 42 46 42 q 24 51 35 42 q 15 68 15 61 q 21 88 14 75 q 24 128 32 110 q 22 367 14 146 q 31 803 31 588 q 35 989 32 949 q 49 1053 38 1029 q 57 1100 67 1088 q 67 1110 50 1107 q 118 1111 81 1111 q 186 1107 171 1111 q 226 1081 201 1103 l 263 1050 l 260 917 q 262 789 257 821 q 286 757 267 757 q 331 824 293 757 q 403 944 392 925 q 442 1021 438 1001 q 483 1072 449 1044 q 503 1087 494 1082 q 524 1096 513 1092 q 548 1102 535 1100 q 582 1107 561 1104 l 646 1113 l 642 1086 q 651 1049 638 1060 q 667 1015 667 1036 q 662 994 667 996 q 639 1004 657 993 q 621 1010 628 1011 q 603 997 614 1008 q 569 955 583 981 q 561 921 556 929 q 451 724 569 908 q 424 668 418 672 l 435 667 q 449 679 449 667 q 483 728 449 690 q 533 799 519 763 q 568 854 551 838 q 582 888 586 875 q 588 903 576 903 m 221 1040 q 203 1057 213 1057 q 178 1025 190 1057 q 169 971 167 993 q 165 893 175 942 q 158 771 158 850 q 196 204 165 206 q 200 207 199 204 q 217 621 208 214 q 221 1040 226 1028 m 619 1042 q 627 1054 628 1051 q 617 1057 626 1057 q 603 1036 603 1057 q 606 1021 603 1021 q 608 1025 606 1022 q 613 1033 610 1028 q 619 1042 617 1038 m 306 708 q 308 746 313 742 q 300 740 306 749 q 290 717 294 731 q 285 694 285 704 q 290 675 285 676 q 306 708 300 678 m 414 565 q 412 599 425 585 q 378 613 399 613 q 360 605 363 613 q 361 558 358 597 q 376 490 364 518 q 443 363 388 463 q 509 258 453 344 q 581 150 565 171 q 596 134 592 135 q 608 144 600 133 q 589 244 640 190 q 557 292 557 279 q 490 431 557 313 q 410 549 422 549 q 414 565 401 549 z "},"L":{"ha":767,"x_min":7,"x_max":758,"o":"m 17 1078 q 31 1108 8 1099 q 61 1101 53 1117 q 114 1096 68 1093 q 182 1090 161 1100 q 219 1096 201 1081 q 233 1105 225 1101 q 251 1110 242 1108 q 267 1110 260 1111 q 280 1107 275 1110 q 285 1100 285 1104 q 271 1071 285 1088 q 267 1031 260 1051 q 278 679 275 1011 l 282 349 q 325 301 303 325 l 489 308 q 628 310 593 311 q 681 300 663 308 q 730 231 715 282 q 726 140 744 179 q 717 117 717 122 q 732 111 718 113 q 754 88 751 108 q 738 62 757 68 q 701 72 718 56 q 681 83 692 82 q 646 75 671 83 q 519 71 606 65 q 389 63 432 76 q 231 49 346 50 q 132 44 154 47 q 96 29 110 42 q 77 15 83 17 q 61 22 71 14 q 49 47 50 32 q 58 74 47 63 q 54 122 67 83 q 25 989 39 174 q 17 1078 24 1063 m 246 632 q 254 992 250 963 q 244 1021 258 1021 q 222 1007 232 1021 q 217 983 211 993 q 207 957 222 974 q 183 851 190 938 q 172 549 175 764 q 173 333 171 386 q 183 261 175 279 q 190 249 186 254 q 197 239 193 243 q 206 233 201 235 q 213 231 210 231 q 238 217 229 231 q 247 208 242 207 q 267 221 251 208 l 289 238 l 265 247 q 229 271 243 257 q 221 285 221 282 q 229 294 221 289 q 242 359 239 299 q 246 632 244 419 m 696 256 q 681 276 693 272 q 661 267 668 279 q 641 262 654 257 q 601 249 628 267 q 556 231 576 231 q 508 211 540 231 q 475 183 475 192 q 551 179 475 178 q 619 177 604 181 q 654 156 635 174 q 677 139 669 142 q 694 143 685 136 q 696 256 717 160 z "},"M":{"ha":876,"x_min":11,"x_max":865,"o":"m 40 1103 q 83 1108 46 1108 q 167 1102 121 1108 q 221 1090 213 1096 q 248 1072 222 1089 q 281 1042 274 1056 q 307 1018 289 1022 q 363 961 325 1015 q 461 896 421 881 q 521 965 475 900 q 581 1029 569 1029 q 597 1042 592 1029 q 650 1082 603 1054 q 699 1103 683 1100 q 744 1101 714 1107 q 799 1103 788 1094 q 832 1111 807 1111 q 857 1094 857 1111 q 846 1068 857 1078 q 840 670 835 1058 q 857 211 846 282 q 863 155 864 171 q 849 114 863 139 q 836 83 838 90 q 844 67 835 75 q 856 36 858 56 q 836 14 853 17 q 801 28 819 11 q 754 42 785 43 q 683 59 726 39 q 632 97 639 79 q 618 379 624 115 q 612 592 615 539 q 600 656 608 646 q 575 659 589 667 q 500 601 561 651 q 444 576 474 579 q 406 590 415 572 q 369 614 399 600 q 307 636 340 628 q 276 625 289 640 q 267 538 268 614 q 269 146 265 461 q 265 111 271 124 q 236 78 258 99 q 199 51 211 54 q 144 51 186 47 q 71 46 88 57 q 35 43 56 33 q 14 60 15 51 q 26 85 13 69 q 38 181 35 94 q 44 557 42 268 q 56 1049 50 1015 q 50 1089 60 1082 q 40 1103 40 1093 m 812 1029 q 816 1029 812 1029 q 821 1038 821 1029 q 812 1047 821 1047 q 803 1038 803 1047 q 812 1029 803 1029 m 264 947 q 257 986 268 969 q 244 998 249 997 q 225 989 239 999 q 190 890 197 969 q 181 543 182 810 q 183 267 181 325 q 196 197 186 208 q 218 156 211 179 q 236 133 225 135 q 242 149 246 132 q 229 296 236 175 q 222 508 222 417 q 225 621 222 592 q 236 657 228 650 q 246 753 249 668 q 264 947 242 843 m 815 974 q 803 1001 810 1000 q 774 982 797 1001 l 750 961 l 747 699 q 748 497 747 568 q 753 383 749 426 q 765 294 757 340 q 789 121 796 144 q 792 104 783 104 q 821 126 801 104 q 838 154 836 143 q 832 211 839 165 q 821 610 821 271 q 815 974 821 943 m 579 910 q 579 938 586 936 q 558 903 571 940 q 537 857 551 878 q 503 824 522 836 q 468 811 485 811 q 441 806 442 811 q 463 782 440 800 q 499 732 486 764 q 510 713 506 718 q 521 705 514 707 q 542 704 528 703 l 571 707 l 571 793 q 579 910 571 876 m 303 785 q 308 785 303 785 q 313 794 313 785 q 303 803 313 803 q 294 794 294 803 q 303 785 294 785 m 303 729 q 308 729 303 729 q 313 743 313 729 q 303 757 313 757 q 294 743 294 757 q 303 729 294 729 z "},"N":{"ha":807,"x_min":14,"x_max":796,"o":"m 14 1097 q 38 1111 14 1108 q 72 1104 63 1114 q 135 1097 78 1097 q 210 1083 183 1097 q 261 1031 238 1068 q 390 832 301 972 q 494 682 446 743 q 553 624 542 621 q 560 872 576 631 q 553 994 553 968 q 565 1040 554 1019 q 631 1095 585 1075 q 706 1101 678 1115 q 726 1101 719 1093 q 764 1111 733 1113 q 794 1099 794 1110 q 788 1081 794 1086 q 778 788 779 1075 q 783 335 776 500 q 788 191 789 229 q 778 138 786 153 q 769 112 769 121 q 776 90 769 103 q 783 54 788 68 q 758 40 776 39 q 731 57 740 42 q 719 69 725 68 q 696 64 713 71 q 665 64 678 58 q 613 103 653 69 q 540 183 556 149 q 385 433 513 243 q 276 557 300 557 q 261 543 268 557 q 272 346 257 528 q 282 184 282 214 q 269 131 282 154 q 222 84 253 100 q 157 74 190 68 q 124 73 133 76 q 100 53 114 69 q 80 33 86 36 q 65 39 74 31 q 51 66 53 49 q 60 90 50 83 q 65 129 71 97 q 54 429 60 164 q 40 829 51 674 q 31 966 32 938 q 38 1033 31 994 q 28 1076 43 1068 q 14 1097 14 1085 m 761 944 q 767 979 767 949 q 755 1019 767 1010 q 728 1013 743 1029 q 712 980 718 1001 q 702 917 706 958 q 697 817 699 876 q 694 669 694 758 q 700 418 694 524 q 716 256 706 313 q 742 196 726 199 q 748 208 746 196 q 751 263 750 219 q 753 373 753 306 q 754 567 754 440 q 761 944 754 940 m 233 996 q 201 996 225 1028 l 190 974 q 176 910 178 947 q 175 753 174 874 q 210 238 179 383 q 222 162 222 164 q 225 158 222 160 q 232 158 228 157 q 240 159 236 158 q 249 161 244 160 q 254 165 253 163 q 250 232 258 174 q 230 441 233 353 q 231 717 226 529 q 233 996 238 983 m 429 708 q 368 822 421 713 q 310 921 317 928 q 328 849 306 914 q 374 740 351 783 q 396 685 396 699 q 424 626 396 668 q 472 569 451 583 q 492 536 496 554 q 497 451 486 517 q 515 385 507 385 q 521 488 524 385 l 518 589 l 479 646 q 429 708 439 703 z "},"O":{"ha":701,"x_min":10,"x_max":694,"o":"m 83 1100 q 98 1110 83 1107 q 130 1110 113 1113 q 154 1100 147 1107 q 176 1101 164 1090 q 399 1110 189 1110 q 610 1101 610 1111 q 596 1083 610 1096 q 593 1064 588 1078 q 628 1008 599 1050 q 672 925 661 960 q 688 807 683 890 q 688 581 693 724 q 671 303 682 381 q 632 192 660 225 q 610 158 610 165 q 567 121 610 150 q 533 92 533 97 q 546 83 533 89 q 563 57 565 78 q 542 33 560 33 q 508 53 525 32 q 471 72 490 76 q 392 60 453 67 q 326 51 332 53 q 260 58 296 47 q 228 65 236 67 q 213 50 221 64 q 157 39 190 17 q 157 69 146 46 q 159 97 164 88 q 121 136 154 107 q 74 193 74 178 q 57 225 74 211 q 28 303 35 246 q 17 607 22 360 q 19 879 11 844 q 26 903 21 886 q 32 926 31 921 q 38 943 33 931 q 44 962 42 956 q 53 978 47 968 q 65 998 58 989 q 79 1017 71 1007 q 106 1054 103 1046 q 97 1074 108 1063 q 83 1100 83 1090 m 546 997 q 493 1032 526 1021 q 483 1032 483 1036 q 516 999 485 1024 q 553 978 547 974 q 546 997 557 985 m 644 929 q 608 972 626 963 q 574 963 589 981 q 579 900 564 950 q 593 817 590 869 q 596 613 596 765 q 585 353 596 372 q 588 313 575 335 q 600 269 599 290 q 608 249 600 249 q 633 283 619 249 q 643 335 646 318 q 646 363 638 357 q 653 415 656 368 q 658 675 651 456 l 667 889 l 644 929 m 211 913 q 177 928 185 933 q 156 868 169 922 q 145 615 146 832 q 154 375 144 399 q 158 332 164 351 q 203 261 154 314 q 267 180 243 218 q 292 122 292 142 q 300 103 292 115 q 319 82 308 90 q 333 78 329 74 q 328 131 338 83 q 329 214 319 179 q 331 262 339 253 q 279 271 324 271 q 231 278 233 271 q 233 294 231 282 q 225 335 238 318 q 218 353 221 342 q 214 396 215 365 q 212 469 213 426 q 210 593 211 513 q 221 864 210 832 q 228 892 229 885 q 211 913 226 900 m 410 867 q 304 876 356 908 q 269 838 279 861 q 255 764 258 814 q 251 593 251 714 q 258 365 251 386 q 356 308 271 321 q 394 308 383 304 q 424 331 404 311 l 451 358 l 454 565 q 447 789 456 733 q 410 867 439 844 m 492 385 q 497 385 492 385 q 501 417 501 385 q 492 449 501 449 q 482 417 482 449 q 492 385 482 385 m 365 221 q 369 221 365 221 q 374 231 374 221 q 365 240 374 240 q 356 231 356 240 q 365 221 356 221 z "},"P":{"ha":701,"x_min":7,"x_max":690,"o":"m 31 1104 q 46 1110 31 1108 q 78 1110 61 1113 q 99 1103 94 1108 q 142 1103 103 1094 q 317 1110 185 1111 q 475 1101 450 1110 q 515 1101 504 1090 q 535 1110 521 1107 q 563 1110 550 1113 q 575 1103 575 1108 q 563 1085 575 1094 q 559 1069 554 1078 q 589 1035 564 1060 q 658 933 625 1000 q 684 869 679 892 q 689 793 689 846 q 685 730 689 757 q 669 676 681 703 q 641 627 658 650 q 596 574 624 604 q 497 499 540 515 q 357 481 454 482 q 240 471 250 479 q 237 297 228 464 q 229 107 246 131 q 229 83 218 93 q 229 47 249 63 q 188 51 208 35 q 124 65 172 64 q 67 53 76 65 q 28 45 49 31 q 22 83 8 60 q 28 118 33 101 q 17 564 19 139 q 15 942 13 883 q 32 1033 17 1001 q 40 1086 51 1076 q 31 1104 31 1097 m 636 924 q 567 988 611 965 q 517 1003 522 1011 q 531 983 511 994 q 549 964 549 974 q 568 932 549 954 q 598 881 583 915 q 613 826 613 847 q 622 796 613 813 q 617 750 632 779 q 603 706 606 726 q 611 681 601 686 q 633 698 618 676 q 653 744 647 719 q 667 789 660 772 q 667 847 676 808 q 636 924 658 886 m 211 936 q 194 954 207 956 q 185 939 185 953 q 200 921 185 921 q 211 936 214 921 m 176 885 q 147 903 153 908 q 146 669 138 890 q 150 586 146 668 q 186 181 168 165 q 197 478 199 192 q 195 817 197 767 q 178 883 193 868 q 176 885 176 883 m 407 871 q 327 884 371 886 q 263 864 283 882 q 242 835 247 850 q 233 778 236 819 q 232 720 229 731 q 251 701 235 710 q 344 699 274 692 q 408 708 390 703 q 442 729 425 714 q 465 808 475 764 q 407 871 454 851 m 240 657 q 244 657 240 657 q 249 666 249 657 q 240 675 249 675 q 231 666 231 675 q 240 657 231 657 z "},"Q":{"ha":743,"x_min":13,"x_max":733,"o":"m 85 1097 q 87 1102 83 1100 q 101 1106 90 1104 q 128 1108 111 1107 q 175 1109 146 1108 q 242 1110 204 1110 q 333 1111 279 1111 l 588 1111 l 582 1089 q 596 1057 576 1067 q 614 1038 614 1047 q 638 992 614 1029 q 680 873 674 936 q 678 603 686 810 q 664 315 668 349 q 663 280 660 290 q 679 258 665 269 q 701 203 700 243 q 704 172 701 179 q 714 164 707 164 q 726 160 722 165 q 731 140 729 154 q 724 108 732 124 q 690 67 715 93 q 649 29 663 36 q 611 22 636 22 q 533 50 572 22 q 496 72 508 68 q 463 71 483 76 q 303 68 403 58 q 171 100 204 78 q 150 109 157 110 q 129 96 143 108 q 110 81 117 82 q 92 89 104 81 q 80 103 81 97 q 86 121 79 110 q 82 176 107 157 q 47 238 67 190 q 21 322 26 286 q 14 641 13 376 q 24 914 15 906 q 33 944 33 924 q 47 975 33 963 q 61 994 61 988 q 93 1042 61 1006 q 115 1081 122 1076 q 108 1082 113 1081 q 85 1097 89 1086 m 454 1060 q 433 1065 447 1069 q 418 1049 418 1061 q 440 1038 418 1022 q 454 1060 460 1050 m 367 1036 q 365 1054 371 1047 q 361 1049 363 1058 q 361 1042 361 1046 q 363 1033 361 1035 q 367 1036 365 1031 m 496 1039 q 483 1047 496 1047 q 469 1044 469 1047 q 486 1035 469 1039 q 496 1039 496 1032 m 619 975 q 599 1012 614 1003 q 546 1026 585 1021 q 508 1026 510 1032 l 514 1014 q 565 958 524 994 q 602 913 607 921 q 592 657 597 904 q 579 363 588 406 q 588 306 568 306 q 597 308 592 306 q 625 388 614 314 q 647 654 636 463 q 658 873 658 839 q 643 925 658 907 q 619 975 626 947 m 219 918 q 207 950 213 949 q 200 925 200 951 q 213 893 199 893 q 219 918 226 893 m 408 874 q 331 890 375 901 q 265 835 286 878 q 253 767 256 813 q 249 586 250 722 q 250 403 247 442 q 264 347 253 364 q 344 314 288 313 q 428 351 400 315 q 444 403 440 369 q 450 582 447 438 q 446 801 453 750 q 408 874 439 851 m 197 867 q 161 874 161 897 q 160 846 161 874 q 160 773 160 818 q 160 685 160 728 q 174 296 156 308 q 193 271 183 289 q 232 238 204 251 q 282 204 261 224 q 320 189 307 181 q 333 235 333 197 q 315 267 333 256 q 282 267 297 278 q 267 258 269 257 q 256 281 265 261 q 226 308 246 297 q 203 369 207 317 q 208 619 200 421 l 218 850 l 197 867 m 708 117 q 706 131 714 131 q 693 117 700 131 q 696 104 688 104 q 708 117 703 104 z "},"R":{"ha":721,"x_min":10,"x_max":719,"o":"m 35 1074 q 26 1102 18 1092 q 60 1107 33 1113 q 97 1103 88 1101 q 307 1108 100 1103 q 474 1109 436 1111 q 519 1097 513 1107 q 547 1085 531 1085 q 574 1097 563 1085 q 592 1110 585 1110 q 615 1099 599 1111 q 627 1084 626 1089 q 616 1061 628 1079 q 605 1036 604 1043 q 622 1013 606 1029 q 701 864 682 947 q 692 699 719 781 q 653 614 674 644 q 592 549 632 583 q 542 490 547 511 q 592 372 536 469 q 658 260 643 278 q 683 210 671 246 q 688 173 689 188 q 678 129 688 158 q 672 74 664 82 q 663 31 697 49 q 643 26 650 24 q 622 44 636 28 q 588 64 603 69 q 534 70 569 57 q 481 103 499 83 q 383 263 460 124 q 281 444 299 414 q 256 475 263 475 q 256 263 239 475 q 262 160 263 183 q 249 119 261 138 q 199 74 232 89 q 128 61 167 58 q 74 53 83 65 q 42 40 64 40 q 15 53 19 40 q 24 88 10 65 q 32 115 39 110 q 28 570 25 124 q 40 1035 32 1017 q 35 1074 50 1057 m 597 983 q 529 997 529 1014 q 558 954 529 992 q 597 892 585 921 q 615 817 608 863 q 618 732 622 761 q 597 672 614 703 q 578 622 569 625 q 586 621 581 621 q 605 638 592 621 q 631 673 618 654 q 646 693 644 692 q 681 767 657 704 q 678 856 690 792 q 644 953 665 919 q 597 983 639 963 m 201 943 q 185 957 190 957 q 167 892 178 957 q 164 571 156 822 q 193 213 179 213 q 210 241 207 213 q 208 349 214 269 q 211 557 200 463 q 222 667 222 654 q 217 804 221 675 q 201 943 213 929 m 426 861 q 406 876 415 871 q 383 883 396 881 q 347 885 369 885 q 275 863 292 885 q 254 771 258 842 l 251 699 l 324 696 q 387 698 364 694 q 424 713 410 701 q 451 749 439 725 q 460 808 467 776 q 426 861 453 840 m 532 621 q 547 630 547 621 q 539 639 547 639 q 524 629 529 639 q 532 621 525 622 m 510 613 q 478 607 510 632 q 471 593 461 593 q 485 595 478 593 q 497 600 492 597 q 506 606 503 603 q 510 613 510 610 m 467 522 q 458 564 469 560 q 451 563 453 565 q 453 554 450 561 q 447 525 457 538 q 442 503 436 511 q 425 494 435 496 q 403 487 406 494 q 415 467 400 479 q 442 426 433 450 q 549 258 471 367 q 643 149 628 149 q 660 176 653 149 q 660 194 660 188 q 653 216 660 201 q 637 248 647 231 q 607 296 626 265 q 531 408 551 386 q 506 449 514 428 q 482 475 500 467 q 467 522 464 486 m 220 131 q 225 131 220 131 q 229 153 229 131 q 220 176 229 176 q 211 153 211 176 q 220 131 211 131 z "},"S":{"ha":710,"x_min":14,"x_max":711,"o":"m 100 1099 q 125 1111 100 1110 q 161 1101 150 1113 q 201 1101 172 1090 q 351 1111 235 1113 q 497 1097 467 1110 q 547 1083 529 1083 q 568 1097 564 1083 q 586 1109 572 1106 q 613 1110 600 1113 q 626 1100 626 1108 q 611 1074 626 1089 q 601 1057 601 1063 q 610 1042 601 1051 q 651 945 649 994 q 621 853 654 896 q 574 814 601 828 q 532 810 546 800 q 495 819 524 817 q 429 849 467 821 q 323 876 374 888 q 272 814 272 864 q 303 749 272 778 q 408 688 335 721 q 676 474 621 593 q 691 303 710 403 q 618 153 672 204 q 613 104 588 125 q 626 84 628 92 q 607 67 625 76 q 588 61 594 60 q 571 75 582 63 q 547 93 557 93 q 499 78 536 93 q 374 53 453 57 q 236 63 294 49 q 178 74 189 74 q 151 58 167 74 q 100 44 119 29 q 101 82 86 56 q 107 103 108 96 q 94 125 106 111 q 63 207 68 151 q 76 285 57 263 q 92 311 92 300 q 124 341 92 324 q 185 358 157 358 q 275 321 219 358 q 328 291 311 297 q 368 289 344 285 q 421 313 397 292 q 444 356 444 335 q 434 389 444 371 q 406 422 424 407 q 367 447 388 438 q 149 563 214 518 q 44 668 85 607 q 18 722 22 703 q 14 811 14 742 q 18 899 14 879 q 42 950 22 919 q 94 1021 72 1000 q 110 1079 132 1064 q 100 1099 100 1085 m 592 1006 q 561 1022 575 1018 q 524 1029 547 1026 q 449 1033 501 1032 q 329 1032 342 1038 q 318 1020 317 1028 q 335 1011 319 1013 q 415 1003 396 1007 q 447 986 435 999 q 519 944 465 969 q 581 903 572 921 q 598 885 590 885 q 621 908 606 886 q 631 958 639 932 q 592 1006 624 983 m 246 919 q 232 947 246 936 q 219 953 224 954 q 210 938 215 951 q 179 897 201 914 q 150 839 151 874 q 171 747 149 804 q 207 678 197 679 q 240 707 215 675 q 258 734 256 726 q 251 744 260 742 q 228 785 238 749 q 201 829 217 819 q 191 842 189 836 q 214 871 193 849 q 246 919 246 903 m 382 921 q 353 929 382 929 q 282 910 282 925 q 303 906 282 900 q 353 911 325 911 q 382 921 382 911 m 422 903 q 408 911 418 911 q 404 903 400 911 q 419 893 410 893 q 422 903 428 893 m 353 649 q 281 672 324 665 q 233 668 239 678 q 288 632 231 664 q 408 569 346 600 q 481 539 471 539 q 499 526 488 539 q 531 513 511 513 q 563 483 550 513 q 597 424 576 451 q 615 367 615 399 q 594 281 614 335 q 583 233 582 244 q 596 221 583 221 q 604 225 600 221 q 613 235 608 229 q 618 247 617 240 q 644 308 626 269 q 653 360 663 343 q 658 382 644 376 q 665 397 672 386 q 657 444 660 407 q 653 470 657 460 q 640 491 649 481 q 615 518 632 501 q 549 563 574 556 q 463 597 528 568 q 353 649 399 625 m 418 172 q 410 189 418 183 q 396 188 403 194 q 392 170 389 179 q 404 161 394 161 q 418 172 418 161 z "},"T":{"ha":890,"x_min":13,"x_max":883,"o":"m 40 1088 l 25 1113 l 114 1104 q 707 1104 342 1089 q 874 1101 874 1111 q 872 1099 874 1100 q 872 1046 861 1086 q 875 961 883 1007 q 861 920 869 933 q 829 890 853 907 q 799 873 813 879 q 764 863 785 867 q 703 857 743 860 q 617 846 628 851 q 582 757 588 832 q 581 476 579 717 q 576 125 582 150 q 585 96 571 107 q 599 67 599 83 q 585 40 599 51 q 570 35 576 33 q 551 47 564 36 q 528 62 538 60 q 494 58 518 64 q 418 54 457 50 q 364 46 376 60 q 335 40 351 31 q 319 64 319 49 q 331 94 318 79 q 335 143 344 110 q 332 186 326 178 q 337 404 338 196 q 331 714 336 613 q 313 826 324 814 q 213 849 301 842 q 46 897 56 858 q 25 939 40 915 q 14 965 15 954 q 19 997 13 975 q 43 1050 29 1032 q 51 1066 51 1060 q 40 1088 50 1072 m 826 1053 q 798 1065 806 1064 q 785 1057 790 1065 q 735 1037 783 1054 q 638 1003 688 1019 q 586 983 589 986 q 599 965 581 976 q 750 976 628 950 q 794 983 783 983 q 817 971 804 982 q 856 963 839 950 q 858 982 861 971 q 852 998 854 989 q 849 1014 850 1007 q 847 1028 849 1021 q 839 1042 844 1036 q 826 1053 833 1047 m 531 750 q 508 756 525 757 q 486 749 490 756 q 485 563 479 739 q 500 317 492 386 q 518 236 510 244 q 526 211 526 226 q 531 199 526 204 q 540 194 535 194 q 550 199 546 194 q 554 208 554 203 q 547 221 554 221 q 538 482 540 221 q 531 750 533 744 z "},"U":{"ha":699,"x_min":7,"x_max":692,"o":"m 17 1097 q 26 1108 10 1106 q 103 1108 43 1110 l 200 1107 q 256 1039 228 1072 l 254 872 q 261 528 253 703 q 271 369 267 397 q 292 317 275 340 q 339 279 318 285 q 389 289 364 274 q 429 335 414 304 q 444 415 442 360 q 450 703 447 469 q 463 1039 453 988 q 514 1107 474 1096 q 608 1111 532 1111 q 682 1104 682 1111 l 681 1099 q 681 1057 671 1086 q 683 944 690 1029 q 671 571 678 871 l 664 281 l 640 231 q 601 158 617 183 q 594 136 593 143 q 608 115 596 129 q 615 72 636 85 q 564 88 594 58 q 542 101 550 100 q 524 96 535 103 q 444 71 503 83 q 343 58 385 58 q 229 81 297 58 l 167 101 l 146 83 q 127 71 135 72 q 108 75 119 69 q 90 92 90 85 q 108 118 90 99 l 128 138 l 99 179 q 71 232 71 219 q 60 256 71 244 q 38 583 49 268 q 21 950 26 910 q 42 1081 8 1046 q 53 1093 54 1093 q 42 1092 51 1094 q 17 1097 26 1085 m 639 1060 q 613 1065 625 1054 q 593 1063 594 1081 q 601 1029 592 1050 q 611 1003 611 1013 q 604 982 611 994 q 589 635 593 961 q 586 300 583 307 q 601 303 590 293 q 623 374 618 317 q 639 729 628 431 q 653 954 643 874 q 649 1061 665 1057 l 639 1060 m 229 1036 q 207 1054 221 1050 q 186 1051 193 1058 q 179 1010 179 1044 q 169 938 179 975 q 171 594 158 897 q 197 267 183 292 q 233 219 210 243 q 267 194 257 194 q 283 222 281 194 q 272 267 285 249 q 267 274 271 268 q 231 360 236 317 q 221 618 225 403 q 221 649 221 639 q 211 964 215 960 q 224 994 208 969 q 229 1036 239 1021 m 335 175 q 325 199 335 193 q 310 188 315 206 q 311 167 306 176 q 326 158 318 156 q 335 175 335 161 z "},"V":{"ha":885,"x_min":13,"x_max":890,"o":"m 22 1104 q 35 1110 22 1108 q 63 1110 49 1113 q 81 1101 78 1107 q 131 1093 86 1093 q 186 1081 163 1093 q 225 1047 210 1069 q 244 994 240 1025 q 319 707 251 951 q 400 439 388 463 q 436 412 411 415 q 478 428 461 408 q 617 883 499 451 q 655 1006 640 969 q 686 1060 669 1043 q 733 1086 703 1076 q 781 1104 769 1094 q 814 1111 789 1111 q 839 1104 839 1111 q 828 1086 839 1097 q 842 1050 818 1075 q 864 938 890 997 q 803 753 851 907 q 597 172 646 246 q 587 147 586 154 q 599 119 588 140 q 610 94 610 100 q 599 79 610 88 q 574 68 582 67 q 554 88 567 69 q 538 103 544 101 q 510 96 531 104 q 428 86 481 86 q 358 96 375 86 q 341 102 347 103 q 324 92 335 101 q 291 76 307 76 q 269 92 275 76 q 276 114 267 101 q 296 131 285 126 q 314 129 307 136 q 322 132 322 117 q 308 153 322 147 q 230 313 288 161 q 104 690 172 464 q 28 928 42 903 q 14 978 14 954 q 26 1039 14 1001 q 32 1088 42 1078 q 22 1104 22 1097 m 208 1024 q 181 1047 192 1047 q 168 1030 169 1047 q 176 1007 167 1013 q 186 943 186 1003 q 213 783 186 886 q 311 417 300 443 q 353 335 346 336 q 363 339 356 335 q 376 371 375 350 q 364 403 376 392 q 354 425 350 414 q 326 558 358 433 q 233 903 294 675 q 221 976 219 950 q 208 1024 222 1001 m 832 1022 q 792 1036 807 1067 q 785 988 785 1019 q 772 932 785 956 q 751 873 765 919 q 719 763 738 826 q 685 641 701 700 q 656 529 669 582 q 639 467 642 476 q 624 403 629 433 q 617 357 618 372 q 619 339 615 342 q 682 515 626 339 q 801 879 769 785 q 826 935 815 925 q 842 974 840 946 q 832 1022 843 1003 z "},"W":{"ha":982,"x_min":14,"x_max":971,"o":"m 29 1083 l 14 1111 l 49 1111 q 96 1097 86 1111 q 146 1090 108 1085 q 184 1089 172 1093 q 219 1064 196 1085 q 247 1031 240 1044 q 257 989 254 1017 q 296 614 275 785 q 325 433 317 443 q 355 422 333 422 q 382 429 376 421 q 434 463 390 442 q 496 485 478 485 q 532 471 521 485 q 594 433 544 456 q 651 418 644 411 q 691 653 658 426 q 725 936 724 881 q 735 999 728 993 q 742 1021 742 1006 q 767 1060 742 1033 q 796 1079 782 1075 q 839 1083 810 1083 q 892 1097 886 1083 q 933 1111 897 1111 l 969 1111 l 956 1089 q 942 1047 943 1069 q 951 1014 940 1025 q 957 976 958 1006 q 943 857 956 946 q 850 204 908 650 q 832 117 842 129 q 833 76 822 107 q 839 49 840 57 q 828 33 838 42 q 801 24 810 21 q 778 49 793 26 q 728 76 758 76 q 664 104 697 76 q 618 131 631 131 q 568 158 606 131 q 414 164 486 213 q 301 100 386 144 q 243 85 275 85 q 186 61 210 85 q 163 44 171 47 q 143 49 156 42 q 125 67 126 57 q 138 99 124 76 q 147 120 147 111 q 138 151 147 129 q 124 232 124 186 q 91 529 124 267 q 39 915 58 792 q 36 1028 25 999 q 40 1056 42 1046 q 29 1083 39 1067 m 863 1044 q 863 1041 863 1044 q 867 1035 863 1039 q 877 1034 872 1031 q 883 1042 882 1038 q 878 1051 883 1047 q 869 1052 874 1056 q 863 1044 864 1049 m 174 1039 q 156 1047 167 1050 q 151 1043 151 1044 q 164 1006 151 1036 q 182 861 176 971 q 220 546 188 750 q 278 263 253 342 q 301 182 296 210 q 314 156 306 156 q 319 201 325 157 q 313 269 317 218 q 304 365 310 321 q 292 426 299 410 q 254 667 278 460 q 232 964 231 874 l 232 1029 l 206 1029 q 174 1039 179 1029 m 932 992 q 915 1010 922 1010 q 892 994 907 1011 q 863 897 876 976 q 828 625 849 818 q 825 594 826 614 q 800 349 803 386 q 807 300 797 313 q 808 297 808 299 q 822 286 818 285 q 832 308 825 288 q 846 400 844 338 q 856 477 849 465 q 874 593 863 489 q 928 932 903 861 q 932 992 942 974 m 621 374 q 575 403 618 386 q 538 415 547 414 q 526 407 529 415 q 526 394 524 401 q 532 381 528 388 q 543 371 536 375 q 556 367 550 367 q 579 342 568 367 l 589 317 l 606 339 q 621 374 625 361 m 369 382 q 358 392 369 390 q 351 389 351 393 q 353 386 351 388 q 365 376 357 372 q 369 382 369 378 m 578 221 q 585 242 583 221 q 583 283 586 263 q 576 303 581 303 q 568 262 568 303 q 578 221 568 221 m 805 240 q 809 240 805 240 q 814 249 814 240 q 805 258 814 258 q 796 249 796 258 q 805 240 796 240 z "},"X":{"ha":928,"x_min":10,"x_max":917,"o":"m 25 1099 q 33 1108 15 1106 q 118 1110 51 1110 q 213 1107 194 1110 q 242 1090 232 1104 q 264 1049 253 1075 q 347 930 269 1029 q 438 826 424 831 q 468 829 450 821 q 543 920 485 839 q 626 1051 601 1001 l 654 1107 q 915 1113 785 1110 l 899 1093 q 875 1015 882 1074 q 862 956 871 975 q 819 890 853 936 q 698 711 756 806 q 640 596 640 617 q 665 535 640 571 q 762 402 689 499 q 861 276 835 306 q 882 244 879 256 q 881 200 885 232 q 878 81 872 135 q 865 51 881 56 q 826 67 849 46 q 778 81 806 86 q 705 90 744 74 q 654 133 665 107 q 558 275 628 192 q 467 358 489 358 q 424 336 451 358 q 375 275 411 324 q 308 179 339 226 q 276 125 276 132 q 247 90 276 114 q 215 70 229 74 q 163 69 201 67 q 111 67 125 71 q 85 51 97 64 q 24 43 46 17 q 21 73 14 54 q 43 96 28 92 q 43 149 54 101 q 36 195 35 181 q 51 233 38 210 q 117 335 68 269 q 216 476 171 407 q 269 567 261 544 q 263 619 279 594 q 152 772 239 656 q 43 914 65 889 q 15 974 18 943 q 28 1051 11 1006 q 35 1083 36 1075 q 25 1099 35 1090 m 843 1061 q 794 1071 818 1100 q 765 1057 782 1057 q 751 1052 754 1057 q 753 1035 749 1047 q 742 992 758 1014 q 714 952 728 974 q 690 912 700 931 q 674 877 681 893 q 667 853 667 861 q 654 817 667 832 q 640 793 640 803 q 618 754 640 783 q 589 699 596 725 q 574 660 582 668 q 554 614 565 649 q 547 579 546 593 q 560 536 547 565 q 647 390 578 489 q 767 238 715 292 q 861 185 844 156 q 803 300 871 199 q 633 526 736 401 q 604 571 604 565 q 589 594 604 578 q 581 613 579 606 q 596 642 582 619 q 661 740 624 682 q 727 839 699 799 q 796 931 756 879 q 858 1024 858 1008 q 843 1061 858 1040 m 282 950 q 228 1010 236 1010 q 219 1006 225 1010 q 217 980 211 997 q 254 915 224 963 q 294 843 294 853 q 306 824 294 833 q 339 743 315 814 q 383 631 365 672 q 399 584 403 592 q 386 494 396 576 q 380 421 379 438 q 392 393 381 404 q 414 382 407 376 q 422 589 422 386 l 422 792 l 375 840 q 282 950 328 890 m 477 757 q 482 757 477 757 q 486 771 486 757 q 477 785 486 785 q 468 771 468 785 q 477 757 468 757 m 477 721 q 482 721 477 721 q 486 730 486 721 q 477 739 486 739 q 468 730 468 739 q 477 721 468 721 m 485 593 q 490 593 485 593 q 494 625 494 593 q 485 657 494 657 q 476 625 476 657 q 485 593 476 593 z "},"Y":{"ha":824,"x_min":13,"x_max":813,"o":"m 14 1033 l 17 1111 l 122 1110 l 226 1107 l 289 979 q 365 852 340 879 q 424 833 390 825 q 455 860 438 836 q 507 944 472 883 q 567 1061 567 1047 q 590 1092 567 1074 q 627 1108 606 1104 q 713 1111 649 1111 q 811 1101 811 1111 q 798 1088 811 1096 q 786 1071 785 1079 q 781 1060 788 1061 q 758 1064 774 1058 q 747 1063 753 1065 q 735 1053 740 1060 q 724 1040 729 1047 q 715 1023 718 1032 q 711 1007 711 1014 q 726 981 711 985 q 734 970 736 976 q 715 944 732 964 q 607 793 668 894 q 554 714 572 735 q 543 688 542 701 q 557 675 544 675 q 617 751 565 675 q 717 886 663 815 q 767 961 767 946 q 776 979 767 974 q 785 1007 785 985 q 794 1029 785 1029 q 803 993 803 1029 q 772 907 803 961 q 656 735 742 853 q 633 706 647 725 q 536 564 550 590 q 519 490 522 538 q 518 478 518 482 q 510 248 511 400 q 517 83 510 96 q 508 39 529 54 q 467 49 486 24 q 442 67 456 63 q 389 72 428 71 q 334 69 350 72 q 306 56 318 67 q 259 50 279 31 q 264 97 239 69 q 277 148 275 111 q 276 344 279 185 l 271 571 l 193 685 q 81 857 110 807 q 29 935 46 915 q 15 965 18 947 q 14 1033 13 982 m 247 1014 q 213 1047 231 1047 q 190 1038 196 1047 q 193 1018 183 1029 q 225 921 203 1006 q 268 783 258 793 q 292 776 272 779 q 324 788 315 775 q 318 819 333 801 q 285 907 307 833 q 247 1014 265 979 m 508 703 q 514 715 525 703 q 501 721 508 721 q 494 712 494 721 q 508 703 494 703 m 463 603 q 447 613 457 613 q 444 603 439 613 q 458 593 449 593 q 463 603 468 593 m 486 521 q 492 533 500 531 q 475 531 485 535 q 444 518 464 522 q 431 495 433 514 q 433 396 429 476 q 457 185 444 185 q 476 268 468 185 q 479 421 483 351 q 486 521 472 514 z "},"Z":{"ha":758,"x_min":11,"x_max":751,"o":"m 39 1083 q 28 1105 28 1101 q 388 1108 28 1108 l 746 1110 l 731 1083 q 720 1058 721 1068 q 726 1029 719 1049 q 721 919 750 958 q 693 872 707 903 q 603 719 678 838 q 474 521 529 600 q 403 401 414 436 q 419 339 393 365 q 451 324 432 326 q 544 322 471 321 q 640 321 619 324 q 679 303 661 318 q 733 183 743 257 q 720 144 729 157 q 683 111 711 132 q 651 91 663 97 q 624 83 639 85 q 578 81 608 81 q 524 78 535 81 q 511 63 514 75 q 500 38 508 44 q 474 40 492 28 q 453 69 456 53 q 433 88 451 85 q 307 90 414 90 l 165 90 l 143 63 q 122 42 129 46 q 104 46 114 39 q 90 76 88 57 q 65 126 92 97 q 33 192 42 154 q 39 257 25 231 q 158 463 65 313 q 292 671 250 613 q 361 781 356 761 q 351 828 365 801 q 310 861 339 854 q 219 861 282 868 q 110 861 157 856 q 85 866 94 864 q 67 874 76 868 q 53 886 58 879 q 38 907 47 893 q 16 947 19 933 q 15 990 13 961 q 36 1050 22 1033 q 45 1067 44 1061 q 39 1083 46 1074 m 681 933 q 700 986 700 950 q 683 1044 700 1022 l 665 1065 l 643 1047 q 567 1010 617 1028 q 492 981 493 986 q 503 971 492 979 q 513 944 519 958 q 524 911 507 929 q 541 815 540 893 q 525 704 542 738 q 518 676 511 676 q 525 678 521 676 q 556 721 542 681 q 603 825 581 788 q 681 933 654 910 m 379 457 q 376 452 379 457 q 375 444 372 447 q 388 449 378 442 q 404 467 397 457 q 408 481 411 478 q 396 475 406 483 q 379 457 386 467 m 349 443 q 308 453 340 447 l 276 460 l 271 421 q 274 367 265 381 q 272 342 282 351 q 274 304 265 335 q 300 254 283 274 q 376 205 333 215 q 560 190 418 194 q 663 182 654 188 q 694 190 672 175 q 711 206 710 199 q 704 236 713 214 q 683 277 693 271 q 650 272 672 283 q 547 243 625 260 q 476 233 499 233 q 424 240 454 232 q 374 255 374 251 q 385 276 374 258 q 390 293 392 286 q 379 311 389 300 q 350 324 363 329 q 342 324 346 322 q 338 331 339 325 q 336 344 336 336 q 332 397 336 360 q 342 421 328 421 q 355 429 353 421 q 349 443 357 438 m 509 276 q 514 276 509 276 q 518 285 518 276 q 509 294 518 294 q 500 285 500 294 q 509 276 500 276 m 469 267 q 475 267 469 267 q 482 276 482 267 q 469 285 482 285 q 456 276 456 285 q 469 267 456 267 z "},"[":{"ha":1415,"x_min":14,"x_max":1403,"o":"m 708 -106 q 361 -106 708 -106 q 14 -97 14 -106 q 708 -87 14 -87 q 1403 -97 1403 -87 q 708 -106 1403 -106 z "},"]":{"ha":1415,"x_min":14,"x_max":1403,"o":"m 708 -106 q 361 -106 708 -106 q 14 -97 14 -106 q 708 -87 14 -87 q 1403 -97 1403 -87 q 708 -106 1403 -106 z "},"a":{"ha":974,"x_min":-7,"x_max":967,"o":"m 324 1101 q 465 1111 318 1111 q 603 1100 603 1108 q 592 1074 590 1088 q 614 1036 594 1060 q 738 775 664 969 q 933 303 890 372 q 960 228 956 269 q 951 158 965 186 q 943 130 943 140 q 951 97 943 119 q 961 67 961 74 q 950 51 961 60 q 919 41 931 38 q 896 67 907 44 q 885 83 890 78 q 872 92 879 89 q 854 94 865 94 q 769 131 810 94 q 728 206 728 167 q 719 226 728 219 q 694 279 711 231 q 668 337 679 326 q 617 351 657 347 q 469 349 579 354 q 324 335 360 343 q 292 318 304 331 q 271 281 281 306 q 250 210 261 256 q 215 124 236 149 q 144 85 193 99 q 92 56 106 72 q 56 41 78 38 q 31 65 33 44 q 39 100 28 86 q 35 129 49 113 q 29 271 -7 175 q 165 689 104 475 q 304 1039 239 953 q 350 1096 342 1090 q 353 1101 354 1100 q 344 1099 351 1101 q 324 1101 329 1093 m 660 907 q 619 967 653 924 q 552 1045 585 1010 q 515 1078 519 1081 q 510 1056 510 1071 q 494 1031 510 1040 q 488 1024 489 1028 q 493 1013 488 1021 q 509 994 499 1004 q 540 963 519 983 q 614 903 601 903 q 631 860 625 903 q 735 513 638 804 q 809 342 754 451 q 878 224 864 232 q 893 186 890 217 q 910 150 896 150 q 918 175 918 151 q 929 221 918 206 q 931 251 936 232 q 897 322 925 269 q 828 485 853 415 q 792 578 808 538 q 760 661 775 618 q 660 907 701 814 m 429 971 q 457 983 436 965 q 464 997 465 993 q 436 985 457 1003 q 429 971 425 975 m 371 843 q 347 865 365 857 q 319 854 329 876 q 288 717 310 831 q 256 561 263 586 q 247 475 247 533 q 233 372 247 418 q 229 318 219 326 q 242 326 238 310 q 253 351 246 335 q 265 381 260 368 q 274 413 269 394 q 297 467 286 454 q 319 517 310 483 q 324 569 328 551 q 347 711 318 594 q 371 843 376 829 m 499 810 q 465 832 481 829 q 436 821 450 835 q 409 776 422 807 q 383 699 396 746 q 357 590 358 608 q 375 558 356 571 q 485 552 394 546 q 579 572 575 558 q 550 690 585 588 q 499 810 515 792 m 365 510 q 372 531 376 519 q 360 531 368 543 l 356 513 q 365 510 356 499 m 415 508 q 421 510 415 508 q 428 517 428 513 q 415 524 428 521 q 401 516 401 528 q 415 508 401 504 m 590 510 q 574 520 581 519 q 556 513 568 521 q 503 503 540 503 q 469 494 468 501 q 488 485 475 485 q 543 444 500 485 q 581 413 561 426 q 614 397 600 400 q 635 397 628 393 q 619 435 639 403 q 601 483 601 469 q 590 510 601 499 z "},"b":{"ha":718,"x_min":13,"x_max":711,"o":"m 75 1093 q 85 1104 65 1103 q 228 1104 106 1107 q 419 1101 388 1103 q 464 1107 444 1100 q 490 1101 481 1114 q 503 1100 499 1088 q 522 1111 507 1111 q 526 1100 536 1111 q 525 1074 515 1090 q 550 1057 535 1057 q 572 1044 565 1057 q 568 1024 579 1031 q 554 1019 563 1021 q 540 1016 546 1017 q 521 1014 533 1015 q 497 1013 504 1014 q 482 1007 489 1011 q 480 994 475 1003 q 500 974 485 986 q 547 894 531 947 q 565 842 553 874 q 585 783 578 810 q 592 719 592 757 q 601 647 593 663 q 604 640 606 642 q 596 640 603 639 q 560 653 576 649 q 545 656 544 657 q 565 636 546 654 q 582 613 589 615 q 574 613 579 613 q 517 631 554 613 q 475 647 482 647 q 447 626 468 646 q 429 597 425 606 q 465 581 433 588 q 494 568 483 578 q 517 546 506 558 q 540 526 528 533 q 560 510 551 521 q 578 481 569 500 q 600 431 588 463 q 617 401 606 415 q 615 338 628 388 q 606 267 606 293 q 585 223 603 243 q 576 203 567 203 q 631 243 610 203 q 661 283 646 272 q 678 332 678 296 q 689 367 678 367 q 690 300 707 367 q 663 236 679 260 q 647 210 654 224 q 635 188 639 197 q 624 169 631 179 q 610 149 618 160 q 590 128 601 139 q 569 96 564 99 q 582 93 572 94 q 604 70 601 90 q 589 44 607 50 q 550 61 569 39 q 520 81 533 79 q 440 76 507 83 q 251 69 343 68 q 164 68 182 71 q 131 50 146 65 q 109 35 117 38 q 89 39 101 33 q 71 57 72 47 q 81 85 69 67 q 85 104 88 96 q 68 131 83 113 q 42 165 44 156 q 27 483 38 192 q 14 903 17 774 q 69 1060 13 1008 q 83 1078 82 1072 q 75 1093 85 1083 m 431 1010 q 429 1026 436 1021 q 425 1024 426 1031 q 425 1015 425 1019 q 427 1006 425 1007 q 431 1010 429 1004 m 207 903 q 189 938 207 915 q 174 953 178 951 q 167 943 171 954 q 161 907 161 929 q 142 882 161 886 q 138 881 140 881 q 125 838 125 878 q 140 567 125 799 q 142 547 142 554 q 144 528 143 540 q 144 507 144 517 q 149 238 161 263 q 151 222 142 221 q 178 236 161 222 q 215 267 193 250 q 231 282 229 276 q 225 297 233 288 q 210 488 213 313 q 193 761 207 658 q 188 827 189 806 q 188 859 186 849 q 193 876 189 869 q 207 903 207 889 m 419 853 q 391 871 406 867 q 335 875 376 875 q 299 874 310 875 q 278 871 288 874 q 263 863 268 868 q 249 847 257 858 q 233 824 238 835 q 226 799 228 814 q 225 753 225 783 l 225 686 l 308 688 q 396 703 392 690 q 421 742 400 717 q 442 799 443 768 q 419 853 442 831 m 261 621 q 257 656 261 656 q 249 651 254 657 q 243 615 242 644 q 251 585 244 585 q 261 621 261 585 m 252 539 q 257 539 252 539 q 261 548 261 539 q 252 557 261 557 q 243 548 243 557 q 252 539 243 539 m 453 440 q 417 463 433 460 q 338 467 401 467 q 251 456 263 467 q 246 383 239 446 q 270 309 253 324 q 350 294 288 294 q 412 299 399 294 q 447 325 425 303 q 453 440 508 385 m 261 224 q 242 240 261 238 q 204 231 224 242 q 195 219 194 224 q 210 200 196 215 q 228 183 222 185 q 244 192 233 182 q 261 224 261 206 m 479 194 q 444 221 456 228 q 443 214 443 219 q 465 188 443 208 q 493 167 486 167 q 479 194 499 167 m 558 217 q 554 221 561 219 l 546 221 q 537 219 539 221 q 540 215 535 217 q 558 217 551 210 m 588 994 q 591 1007 588 1003 q 599 1010 594 1011 q 618 991 608 1006 q 624 971 628 976 q 601 972 615 963 q 588 994 588 982 m 628 944 l 626 956 q 636 944 628 954 q 642 911 663 911 q 633 919 633 911 q 628 944 633 926 m 644 835 q 651 885 642 885 q 660 835 660 885 q 653 786 660 786 q 644 835 647 786 m 615 567 q 606 576 606 567 q 610 585 606 585 q 619 575 614 585 q 615 567 624 567 m 633 542 q 647 546 633 557 q 660 526 656 539 q 678 499 668 506 q 688 475 688 493 q 682 461 688 461 q 669 483 671 465 q 651 517 669 500 q 633 542 633 533 m 685 425 q 704 413 696 436 q 697 385 711 388 q 685 402 690 385 q 685 425 681 419 z "},"c":{"ha":758,"x_min":8,"x_max":750,"o":"m 181 1101 q 404 1111 174 1111 l 635 1111 l 647 1079 q 671 1047 658 1047 q 690 1032 685 1047 q 714 1001 696 1017 q 737 941 732 988 q 726 871 742 894 q 699 851 711 850 q 685 843 685 851 q 699 835 685 835 q 710 833 710 836 q 682 803 708 828 q 624 775 653 775 q 551 787 578 775 q 489 836 524 799 q 427 882 451 875 q 367 871 403 889 q 276 578 272 822 q 282 474 278 500 q 304 413 286 447 q 357 336 328 361 q 385 300 385 314 q 433 301 385 265 q 476 342 453 317 q 553 410 532 397 q 603 421 578 421 q 633 407 628 421 q 647 394 638 394 q 657 408 657 394 q 658 415 657 414 q 662 417 658 417 q 670 414 665 417 q 685 406 675 411 q 726 371 713 389 q 744 306 738 353 q 740 254 750 260 q 735 235 731 247 q 719 189 740 221 q 668 132 697 157 q 641 106 643 113 q 650 88 639 100 q 665 51 668 68 q 644 34 661 35 q 606 50 626 33 q 490 47 567 86 q 422 33 457 29 q 279 68 297 53 q 263 72 271 75 q 240 54 256 69 q 194 35 214 29 q 176 57 178 40 q 189 85 175 74 q 199 111 204 99 q 163 157 194 124 q 64 296 94 222 q 21 499 33 369 q 19 717 10 614 q 59 907 32 846 q 168 1054 86 968 q 201 1100 214 1103 q 181 1101 185 1094 m 575 1061 q 558 1074 565 1074 q 533 1061 550 1074 q 496 1047 517 1047 q 483 1044 483 1047 q 515 1007 485 1036 q 592 949 557 967 q 639 915 625 931 q 676 888 650 901 q 699 880 693 879 q 711 892 704 881 q 720 941 724 915 q 700 981 717 967 q 663 1009 686 993 q 621 1036 640 1025 q 596 1047 601 1047 q 575 1061 588 1047 m 421 1054 q 437 1039 421 1039 q 433 1056 453 1039 q 428 1060 429 1060 q 421 1054 421 1068 m 301 997 q 288 1018 299 1013 q 276 1014 276 1022 q 290 992 276 1004 q 302 985 300 985 q 301 997 304 986 m 299 911 q 306 911 299 911 q 313 920 313 911 q 299 929 313 929 q 285 920 285 929 q 299 911 285 911 m 265 853 q 224 882 242 871 q 188 865 192 899 q 200 808 185 843 q 201 795 203 797 q 192 796 200 793 q 172 785 178 801 q 165 729 165 769 q 157 688 165 693 q 149 651 149 683 q 157 603 150 618 q 157 581 167 585 q 149 547 147 574 q 161 510 150 521 q 165 483 174 496 q 163 458 160 475 q 188 368 165 440 q 224 297 207 303 q 231 294 228 296 q 235 290 233 292 q 236 286 236 288 q 281 231 231 279 q 331 194 322 189 q 342 268 340 200 q 340 317 343 310 q 322 324 338 325 q 299 332 303 319 q 254 479 265 451 q 247 573 247 499 q 251 714 246 647 q 247 761 257 756 q 240 781 235 769 q 263 797 244 793 q 284 819 283 803 q 265 853 285 836 m 317 861 q 317 886 326 885 q 306 876 311 883 q 304 851 294 857 q 317 861 313 849 m 722 299 q 694 389 718 368 q 667 382 682 400 q 639 374 656 368 q 621 363 621 378 q 613 332 621 349 q 593 290 604 318 q 556 239 578 261 q 537 217 539 224 q 543 203 535 210 q 585 203 556 193 q 624 203 604 210 q 663 200 644 197 q 684 208 679 203 q 686 221 689 213 q 704 242 682 238 q 722 251 719 243 q 722 299 724 260 m 412 176 q 416 176 412 176 q 421 194 421 176 q 412 213 421 213 q 403 194 403 213 q 412 176 403 176 m 475 185 q 453 203 464 207 q 450 188 447 200 q 469 169 453 172 q 481 169 479 167 q 475 185 482 172 z "},"d":{"ha":740,"x_min":11,"x_max":729,"o":"m 29 1104 q 251 1111 29 1111 q 442 1108 410 1111 q 476 1093 474 1106 q 494 1075 482 1075 q 501 1085 500 1078 q 540 1071 501 1097 q 565 1046 560 1057 q 585 1029 574 1029 q 612 1015 594 1029 q 629 992 629 1000 q 611 993 629 983 q 575 997 590 1004 q 535 1012 560 993 q 511 1049 511 1031 q 496 1061 511 1075 l 483 1043 q 480 1017 475 1026 q 518 974 485 1007 q 593 868 565 928 q 617 791 611 826 q 629 636 622 756 q 635 480 636 514 q 621 407 635 446 q 613 342 603 353 q 597 302 624 328 q 543 275 569 276 l 515 274 l 546 264 q 580 263 569 257 q 629 311 590 268 q 657 338 644 326 q 678 355 669 350 q 688 358 686 360 q 679 329 693 349 q 665 296 665 310 q 639 250 665 283 q 597 190 611 218 q 588 165 589 172 q 597 149 588 158 q 610 118 611 133 q 593 94 608 103 q 574 92 582 89 q 550 111 565 96 l 524 139 l 461 125 q 301 108 399 111 q 171 100 206 107 q 107 104 133 93 q 65 99 82 114 q 33 89 47 83 q 14 110 17 94 q 26 139 11 126 q 28 140 26 140 q 42 218 40 150 q 40 685 43 286 q 39 708 39 701 q 47 1047 38 1026 q 44 1083 58 1068 q 29 1104 29 1099 m 375 1050 q 368 1056 375 1054 q 353 1056 361 1057 q 343 1050 346 1054 q 349 1029 340 1042 q 357 1021 354 1021 q 365 1029 360 1021 q 375 1050 375 1044 m 411 1039 q 420 1039 411 1039 q 429 1048 429 1039 q 411 1057 429 1057 q 393 1048 393 1057 q 411 1039 393 1039 m 220 1011 q 225 1011 220 1011 q 229 1020 229 1011 q 220 1029 229 1029 q 211 1020 211 1029 q 220 1011 211 1011 m 185 919 q 156 938 163 935 q 146 932 149 940 q 146 822 143 926 q 154 592 149 717 q 164 410 160 468 q 172 320 168 354 q 179 261 175 286 q 188 222 183 236 q 199 196 192 208 q 211 160 211 172 q 218 149 211 149 q 225 210 225 149 q 226 250 225 231 q 227 278 226 269 q 228 299 228 288 q 226 326 228 311 q 221 363 225 340 q 213 660 213 422 l 211 901 l 185 919 m 396 881 q 324 891 360 896 q 267 863 288 886 q 250 812 253 847 q 249 589 247 776 l 251 335 l 411 335 l 447 372 q 508 633 519 450 q 490 751 504 700 q 451 835 475 801 q 396 881 428 868 m 375 257 q 364 271 375 267 q 357 264 358 271 q 366 249 357 249 q 375 257 375 249 m 266 194 q 270 194 266 194 q 275 203 275 194 q 266 213 275 213 q 257 203 257 213 q 266 194 257 194 m 629 960 q 638 965 629 965 q 662 942 647 965 q 671 914 676 919 q 663 914 668 911 q 653 923 658 917 q 642 935 647 929 q 633 949 636 942 q 629 960 629 956 m 674 874 q 682 885 674 885 q 695 865 689 885 q 696 840 701 844 q 688 842 693 836 q 678 856 682 847 q 674 874 674 865 m 694 788 q 700 821 690 821 q 713 788 708 821 q 710 746 718 743 q 694 788 701 750 m 719 649 q 714 649 719 649 q 710 667 710 649 q 719 685 710 685 q 728 667 728 685 q 719 649 728 649 m 707 588 q 724 572 722 603 q 722 524 725 556 q 696 388 714 394 q 692 426 688 385 q 693 432 693 429 q 700 531 700 485 q 707 588 701 583 z "},"e":{"ha":696,"x_min":11,"x_max":690,"o":"m 321 649 q 299 674 321 658 q 276 700 276 689 q 274 744 276 717 q 267 795 271 772 q 261 822 264 818 q 267 845 257 828 q 272 871 276 863 q 272 881 269 881 q 275 881 272 882 q 299 890 282 875 q 310 901 311 900 q 292 900 310 903 q 257 917 268 896 q 221 940 246 938 q 206 941 211 939 q 198 937 201 943 q 193 924 194 931 q 189 899 192 917 q 183 850 183 858 q 188 814 183 842 q 190 790 192 794 q 175 785 188 785 q 161 781 164 785 q 161 764 158 776 q 171 725 167 749 q 199 631 181 667 q 233 546 222 583 q 242 534 238 535 q 260 543 246 533 q 310 557 279 557 q 344 567 338 557 q 397 572 349 574 q 475 561 446 569 q 501 538 490 557 q 507 503 513 518 q 498 490 504 493 q 476 490 492 488 q 444 486 450 497 q 381 475 438 475 q 326 468 344 475 q 301 444 308 461 q 294 393 294 428 q 297 361 294 372 q 306 341 300 350 q 333 328 313 332 q 379 323 354 325 q 454 319 404 321 q 586 307 551 317 q 644 267 621 297 q 654 246 663 246 q 632 261 649 247 q 586 289 608 283 q 549 282 564 294 q 510 265 538 271 q 414 249 483 258 q 381 243 397 246 q 358 239 364 240 q 342 238 353 238 q 321 239 332 238 q 290 244 310 240 l 244 251 l 272 272 q 286 294 299 294 q 278 313 274 294 q 269 339 283 329 q 263 372 254 346 q 268 428 269 400 q 310 504 264 485 q 328 514 326 510 q 324 518 329 517 l 294 515 q 260 492 263 510 q 232 475 254 475 q 215 473 215 475 q 226 457 214 471 q 237 441 236 447 q 231 426 238 435 q 210 415 222 417 q 187 416 199 414 q 160 413 175 418 l 142 407 l 158 372 q 171 329 175 338 q 174 300 164 319 q 190 244 185 275 l 199 208 l 281 197 q 574 171 535 164 q 605 172 597 174 q 617 157 613 169 q 635 146 624 132 q 643 172 642 154 q 656 200 643 197 q 664 192 661 203 q 660 147 672 164 q 657 144 658 146 q 667 107 647 139 q 681 78 681 85 q 671 58 682 71 q 642 41 654 40 q 615 63 629 42 q 591 82 604 79 q 517 82 578 85 q 396 67 431 78 q 356 58 372 58 q 313 67 340 58 q 229 67 267 78 q 142 63 190 57 q 76 54 93 68 q 38 42 58 38 q 14 64 17 46 q 28 96 11 83 q 42 174 39 104 q 44 567 44 243 q 47 944 44 847 q 58 1068 50 1040 l 71 1111 l 351 1110 q 439 1110 396 1110 q 515 1109 482 1110 q 574 1108 549 1108 q 613 1106 600 1107 q 626 1104 626 1106 q 643 1083 621 1100 q 674 1024 658 1069 q 681 968 689 978 q 663 983 671 958 l 657 1013 q 640 1050 657 1032 q 611 1061 624 1068 q 554 1053 603 1056 q 314 1014 535 1051 q 294 1008 301 1013 q 288 999 286 1003 q 317 985 292 985 q 331 993 331 986 q 346 994 331 1004 q 447 979 363 985 q 563 951 532 972 q 649 939 611 918 q 663 944 658 944 q 667 935 667 943 q 638 898 667 921 q 593 875 608 875 q 554 865 574 875 q 532 865 535 854 q 520 874 529 871 q 502 874 511 876 q 493 867 493 872 q 413 863 493 857 q 342 865 357 867 q 313 849 326 863 q 293 788 294 831 q 308 722 292 746 q 331 706 317 710 q 385 703 344 703 q 439 699 425 703 q 458 685 453 696 q 482 667 471 667 q 489 676 490 667 q 489 685 488 685 q 529 643 499 685 q 538 630 539 631 q 525 642 538 629 q 419 640 488 672 q 354 626 388 624 q 321 649 321 629 m 103 1079 q 108 1083 103 1079 q 113 1094 113 1086 q 104 1101 113 1101 q 90 1092 96 1101 q 88 1077 83 1082 q 103 1079 93 1072 m 275 992 q 264 1007 275 1004 q 235 1000 253 1010 q 222 983 218 990 q 249 975 226 975 q 275 992 275 975 m 351 893 q 367 902 367 893 q 358 911 367 911 q 344 901 349 911 q 351 893 344 894 m 476 875 q 480 875 476 875 q 485 884 485 875 q 476 893 485 893 q 467 884 467 893 q 476 875 467 875 m 480 285 q 486 285 480 285 q 493 294 493 285 q 480 303 493 303 q 467 294 467 303 q 480 285 467 285 m 325 258 q 339 267 339 258 q 331 276 339 276 q 317 265 321 276 q 325 258 318 260 m 548 567 q 543 567 548 567 q 539 576 539 567 q 548 585 539 585 q 557 576 557 585 q 548 567 557 567 z "},"f":{"ha":632,"x_min":11,"x_max":624,"o":"m 24 1097 q 21 1111 13 1110 q 81 1107 28 1113 q 170 1100 146 1100 q 367 1107 194 1100 l 553 1114 l 582 1078 q 619 1000 624 1025 q 613 993 618 993 q 603 1010 603 993 q 592 1036 603 1026 q 524 1051 579 1046 q 461 1049 469 1056 q 353 1029 454 1040 q 252 1013 274 1021 q 232 981 231 1004 q 233 971 232 972 l 236 975 q 263 986 239 983 q 367 988 288 989 q 478 983 450 986 q 532 967 507 979 l 571 947 l 586 965 q 601 977 594 976 q 609 970 608 978 q 604 950 610 963 q 540 895 586 917 q 444 876 493 874 q 393 878 419 879 q 344 876 367 878 q 303 870 321 874 q 281 863 286 867 q 260 799 264 850 q 275 728 256 744 q 365 711 294 713 q 431 702 431 711 q 422 693 431 693 q 413 684 413 693 q 428 675 413 675 q 429 664 454 675 q 371 647 407 654 q 264 654 279 631 q 263 665 261 660 q 253 693 268 682 q 228 726 235 710 q 232 753 222 743 q 231 789 242 767 q 224 838 219 811 q 224 864 231 867 q 201 869 217 863 q 186 894 183 878 q 197 903 188 903 q 190 915 206 903 q 185 919 189 918 q 157 933 164 938 q 145 867 149 928 q 149 788 142 807 q 149 753 158 763 q 142 728 138 743 q 169 675 146 714 q 197 590 200 622 q 207 551 194 556 q 200 506 219 547 q 183 460 185 476 q 190 389 182 443 q 222 223 208 269 q 253 176 236 176 q 274 198 263 176 q 278 226 285 219 q 272 256 274 231 q 271 306 269 282 q 276 331 272 331 q 296 277 288 331 q 294 217 304 224 q 290 201 285 213 q 285 171 297 193 q 278 149 276 157 q 294 126 281 142 l 315 104 l 297 83 q 278 70 283 71 q 263 76 272 69 q 182 90 249 89 q 126 88 143 92 q 97 74 110 85 q 63 63 81 60 q 43 80 46 65 q 53 111 40 94 q 67 145 65 125 q 58 172 68 165 q 49 351 49 178 q 36 643 49 522 q 17 893 21 775 q 15 1005 13 975 q 25 1053 17 1035 q 35 1078 35 1071 q 24 1097 35 1085 m 249 944 q 240 957 249 957 q 228 944 233 957 q 228 926 222 932 q 242 926 235 919 q 249 944 249 932 m 303 903 q 317 903 303 903 q 331 912 331 903 q 303 921 331 921 q 276 912 276 921 q 303 903 276 903 m 188 729 q 188 737 185 735 q 196 738 190 739 q 211 722 207 733 q 210 714 213 717 q 203 714 208 711 q 188 729 190 717 m 492 649 q 468 664 490 638 q 463 685 453 682 q 485 672 474 685 q 492 649 496 658 m 281 565 q 327 592 318 589 q 344 586 336 594 q 375 575 349 583 q 431 560 401 567 q 463 551 460 553 q 469 552 465 550 q 475 559 472 554 q 479 569 478 564 q 496 593 485 596 q 503 578 503 592 q 478 536 503 563 q 458 521 468 526 q 434 513 447 515 q 399 507 421 510 q 351 504 365 506 q 320 497 336 503 q 300 488 304 492 q 291 468 296 483 q 285 440 286 453 q 285 397 285 426 q 272 339 285 335 q 257 403 261 346 q 245 447 254 424 q 235 497 236 471 q 238 526 235 517 q 249 542 240 535 q 281 565 257 550 z "},"g":{"ha":710,"x_min":6,"x_max":701,"o":"m 79 1074 q 43 1110 61 1092 l 340 1111 q 626 1104 617 1111 q 624 1094 629 1101 q 614 1061 613 1083 q 626 1039 615 1039 q 657 994 633 1039 q 675 949 668 974 q 681 909 682 925 q 672 893 681 893 q 663 926 663 893 q 653 975 663 957 q 626 993 643 993 q 597 1015 608 993 q 568 1039 588 1039 q 538 1050 549 1039 q 518 1049 525 1061 q 492 1047 510 1036 q 472 1047 475 1056 q 481 1033 469 1042 q 508 990 489 1029 q 565 924 529 951 q 613 865 604 896 q 643 832 622 835 q 626 785 690 825 q 508 769 568 749 q 439 850 449 790 q 346 921 428 921 q 308 916 321 921 q 281 896 294 911 q 246 844 254 868 q 238 703 238 824 q 244 472 238 582 q 251 401 249 419 q 259 372 254 382 q 281 347 264 361 q 408 356 340 293 q 438 387 432 375 q 443 415 444 399 q 435 440 442 435 q 406 447 429 444 q 379 452 385 449 q 376 468 374 456 q 378 481 381 478 q 364 483 375 485 q 332 497 342 481 q 335 531 322 513 q 341 545 342 542 q 332 549 340 549 q 318 558 318 549 q 325 567 318 567 q 344 599 332 567 q 371 638 356 631 q 436 644 379 642 q 559 649 493 647 q 631 651 625 651 q 661 640 657 651 q 658 631 663 632 q 640 633 654 631 q 608 628 621 639 q 581 588 594 618 q 550 567 572 567 q 544 522 501 567 q 572 472 572 494 q 582 444 572 449 q 589 363 592 438 q 568 268 585 286 q 560 250 550 249 q 594 269 567 251 q 624 295 608 278 q 646 329 639 313 q 676 367 665 368 q 681 357 681 367 q 642 260 681 340 q 638 240 636 247 q 654 217 640 232 q 670 194 671 199 q 650 178 669 189 q 614 178 631 168 q 598 181 604 183 q 582 169 592 179 q 536 132 565 149 q 452 92 483 100 q 346 85 421 85 q 258 89 283 85 q 200 108 232 93 q 122 160 149 133 q 95 180 104 176 q 74 176 86 183 q 36 176 56 165 q 33 224 6 193 q 44 245 44 236 q 33 285 44 254 q 19 376 22 314 q 15 636 17 438 l 14 943 q 79 1074 47 1010 m 446 1047 q 458 1054 460 1047 q 440 1065 456 1064 q 426 1056 426 1065 q 446 1047 426 1047 m 219 918 q 200 942 211 933 q 180 951 189 951 q 167 943 171 951 q 167 911 161 931 q 154 893 171 893 q 133 878 139 893 q 138 851 128 864 q 136 825 147 839 q 132 628 125 811 q 145 396 138 464 q 171 282 153 328 q 188 259 179 261 q 210 274 196 257 q 231 306 229 296 q 221 340 232 317 q 208 407 211 360 q 203 599 204 454 q 202 713 203 653 q 201 810 201 774 q 200 851 200 846 q 214 888 200 878 q 219 918 229 899 m 285 250 q 225 253 236 268 l 224 244 q 252 231 231 231 q 285 204 274 231 q 306 184 296 179 q 311 215 317 189 q 285 250 306 242 m 406 189 q 406 199 410 192 q 397 208 403 206 q 388 206 392 210 q 391 190 382 197 q 406 189 400 182 m 604 613 q 628 621 610 621 q 642 618 640 621 q 636 608 643 615 q 608 601 625 594 q 604 613 600 604 m 681 599 q 686 592 683 603 q 697 449 701 540 q 688 390 694 389 q 675 489 678 392 q 681 599 675 590 z "},"h":{"ha":740,"x_min":11,"x_max":728,"o":"m 24 1086 l 25 1111 l 117 1111 q 197 1108 179 1111 q 228 1090 214 1104 q 257 1033 251 1065 q 254 933 263 1000 q 249 808 249 875 q 257 735 250 742 q 365 728 264 729 q 472 732 465 726 q 481 892 478 740 q 482 1053 481 1042 q 506 1088 483 1063 q 528 1104 518 1100 q 556 1110 538 1108 q 628 1111 575 1111 l 728 1111 l 714 1086 q 685 1060 703 1067 q 661 1067 668 1054 q 642 1075 654 1075 q 628 1057 629 1075 q 639 1019 628 1039 q 633 963 649 1001 q 621 903 624 940 q 619 761 618 865 q 635 349 622 515 q 664 165 647 182 q 681 172 676 151 q 675 203 683 188 q 667 275 667 218 q 675 675 667 332 q 692 1006 685 997 q 701 1031 701 1015 q 712 1047 701 1047 q 715 914 722 1047 q 706 417 707 728 q 714 93 706 107 q 717 64 722 81 q 688 49 711 49 q 656 67 665 50 q 640 80 650 78 q 597 79 629 82 q 549 79 560 75 q 510 114 538 83 l 472 153 l 476 300 q 468 458 479 447 q 360 471 457 469 q 280 469 299 472 q 256 457 261 467 q 247 292 247 440 l 247 143 l 224 119 q 168 88 199 99 q 111 82 138 78 q 68 67 85 88 q 38 52 54 50 q 16 70 21 54 q 21 108 11 86 q 26 139 32 128 q 22 578 22 144 q 24 1086 21 1013 m 224 1054 q 167 1011 189 1108 q 157 890 157 968 q 165 589 157 813 q 174 381 169 453 q 183 278 178 308 q 194 243 188 249 q 206 254 201 239 q 214 464 211 282 q 220 631 217 592 q 233 681 224 671 q 244 699 251 697 q 229 696 240 699 q 215 707 217 693 q 215 824 213 722 q 228 994 219 950 q 224 1054 238 1035 m 440 610 q 439 693 443 693 q 419 685 436 693 q 408 662 410 679 q 407 593 406 644 q 414 507 410 510 q 428 521 422 499 q 440 610 438 549 m 221 194 q 213 212 221 208 q 197 203 204 215 q 198 185 193 194 q 213 176 203 176 q 221 194 221 176 z "},"i":{"ha":686,"x_min":10,"x_max":689,"o":"m 14 1103 q 322 1110 14 1110 l 631 1113 l 631 1089 q 644 1051 631 1065 q 652 1040 649 1047 q 657 1024 656 1032 q 658 1010 658 1017 q 656 998 658 1003 q 650 993 653 993 q 640 1014 640 993 q 604 1059 640 1053 q 492 1042 568 1065 q 407 1003 408 1014 q 414 989 406 997 q 464 979 426 974 q 509 974 504 983 q 544 965 514 965 q 598 956 571 965 q 633 936 625 947 q 624 910 639 926 q 594 893 610 893 q 573 887 579 893 q 532 879 567 881 q 476 867 496 876 l 456 856 l 461 625 q 476 376 468 394 q 515 358 486 358 q 594 342 539 358 q 637 322 625 331 q 660 289 649 313 q 660 173 688 231 q 572 111 632 115 q 552 108 558 110 q 541 103 546 107 q 535 94 536 100 q 532 76 533 89 q 524 51 529 57 q 504 44 518 44 q 484 51 490 44 q 471 76 478 57 l 461 108 l 360 108 q 260 101 278 108 q 233 61 242 94 q 204 35 225 35 q 186 40 190 35 q 181 63 182 46 q 172 102 181 93 q 142 106 164 111 q 50 150 101 99 q 32 211 35 164 q 42 289 29 258 q 88 329 50 311 q 160 349 125 347 q 210 361 193 349 q 224 401 222 371 q 225 572 226 432 q 217 790 222 735 q 201 856 213 846 q 139 868 190 864 q 50 903 89 874 q 16 951 21 926 q 24 1039 11 976 q 22 1089 31 1079 q 14 1103 14 1097 m 426 938 q 406 963 417 964 q 379 932 394 961 q 368 825 340 857 q 369 793 381 810 q 369 536 349 760 q 374 444 375 465 q 364 413 374 422 q 355 390 354 401 q 369 335 356 378 q 396 264 386 278 q 435 242 406 250 q 610 179 606 192 q 624 167 615 167 q 629 179 633 167 q 642 208 624 193 q 657 253 660 225 q 649 276 654 271 q 619 283 643 281 q 542 276 583 286 q 497 276 500 268 q 472 285 493 285 q 443 297 453 285 q 432 342 436 304 q 432 399 428 379 q 432 617 433 408 q 428 790 431 750 q 415 842 425 831 q 405 858 406 851 q 411 874 404 864 q 429 907 426 894 q 426 938 432 919 m 640 957 q 635 957 640 957 q 631 966 631 957 q 640 975 631 975 q 650 966 650 975 q 640 957 650 957 z "},"j":{"ha":697,"x_min":10,"x_max":689,"o":"m 397 1071 l 410 1111 l 660 1111 l 664 1064 q 671 861 668 1031 q 679 563 671 721 q 677 359 689 419 q 610 201 665 299 q 581 171 601 185 q 563 142 564 158 q 575 113 561 125 q 568 67 606 86 q 548 63 556 60 q 525 85 540 65 q 501 108 510 104 q 474 108 492 113 q 366 88 400 90 q 282 92 332 85 q 218 97 231 99 q 188 79 206 96 q 165 62 172 64 q 149 67 157 60 q 137 99 133 81 q 160 122 140 117 q 169 135 176 125 q 126 176 163 144 q 56 253 79 219 q 21 335 33 286 q 17 392 11 371 q 50 447 22 413 q 185 483 100 506 q 272 400 254 465 q 298 346 282 361 q 343 331 314 331 q 400 356 376 331 q 422 394 419 375 q 425 510 425 414 q 421 701 425 594 q 410 892 417 808 q 397 994 403 975 q 397 1071 386 1029 m 640 921 q 636 1029 639 1006 q 624 1054 633 1053 q 591 1031 603 1058 q 574 935 579 1004 q 568 793 568 869 q 574 460 568 717 q 592 289 576 300 q 615 299 599 283 q 630 319 633 315 q 643 365 626 322 q 654 431 653 393 q 650 599 656 469 q 640 921 643 801 m 231 388 q 226 426 231 417 q 210 440 222 436 q 186 441 192 446 q 190 421 181 436 q 199 364 199 408 q 211 297 199 328 q 238 267 224 267 q 255 281 253 267 q 246 317 257 294 q 231 388 232 343 z "},"k":{"ha":699,"x_min":8,"x_max":690,"o":"m 53 1076 l 69 1111 l 143 1111 q 207 1108 192 1111 q 235 1092 222 1104 q 263 1040 254 1069 q 265 986 272 1010 q 264 871 258 961 q 285 778 269 779 q 313 807 296 781 q 400 955 354 872 q 446 1043 446 1038 q 479 1082 446 1054 q 517 1107 501 1103 q 579 1111 532 1111 q 640 1100 640 1108 q 650 1075 636 1086 q 664 1031 664 1063 q 662 1006 664 1008 q 647 1014 660 1004 q 623 1028 631 1029 q 596 1006 615 1026 q 574 933 554 957 q 588 925 582 925 q 608 935 593 925 q 649 968 633 951 q 671 979 671 994 q 636 915 668 957 q 561 796 625 903 q 471 642 497 689 q 456 590 456 613 q 517 444 456 571 q 607 279 579 317 q 628 238 628 251 q 589 269 628 224 q 560 313 560 301 q 507 420 558 326 q 433 544 456 514 q 422 586 413 572 q 390 625 439 614 q 368 627 372 631 q 364 601 364 624 q 368 530 363 554 q 393 476 374 506 q 443 392 415 444 q 507 286 457 364 q 568 188 557 208 q 588 163 576 171 q 609 158 600 154 q 621 178 618 163 q 625 194 622 188 q 631 201 628 200 q 638 201 635 203 q 644 192 642 199 q 646 174 646 185 q 667 123 646 143 q 686 90 689 103 q 666 72 681 76 q 640 78 651 68 q 599 82 628 88 q 546 71 563 74 q 507 73 529 68 q 475 85 485 78 q 446 121 465 92 q 413 177 426 150 q 369 264 399 204 q 305 388 325 354 q 275 421 285 421 q 253 379 260 421 q 247 238 247 338 q 245 174 247 192 q 238 146 243 157 q 221 119 233 135 q 189 95 203 100 q 135 88 175 90 q 64 71 75 82 q 19 72 42 44 q 24 104 8 85 q 32 126 32 118 q 24 156 32 135 q 18 217 10 188 q 32 643 28 244 q 36 990 33 926 q 53 1076 39 1053 m 222 639 q 232 990 232 932 q 221 1060 232 1049 q 203 1072 207 1072 q 189 1054 200 1071 q 174 988 174 1032 q 173 935 174 978 q 171 822 172 892 q 168 693 169 751 q 188 243 161 281 q 204 231 199 226 q 222 639 208 238 m 628 1068 q 614 1074 628 1081 q 603 1061 607 1068 q 608 1039 596 1040 q 619 1047 614 1039 q 628 1068 628 1060 m 464 756 q 446 725 446 729 q 433 705 446 721 q 419 683 419 689 q 433 678 419 668 q 446 693 440 683 q 486 746 456 710 q 542 825 519 782 q 579 879 567 869 q 588 900 594 890 q 556 894 576 919 l 522 846 q 500 811 514 833 q 477 775 486 789 q 464 756 468 761 m 304 700 q 303 756 310 757 l 297 749 q 288 715 292 740 q 285 670 285 689 q 289 649 285 651 q 304 700 299 649 z "},"l":{"ha":771,"x_min":14,"x_max":760,"o":"m 28 1090 l 14 1111 l 151 1111 q 279 1103 281 1111 q 278 1097 279 1100 q 272 1061 265 1085 q 281 719 278 1036 q 294 374 286 397 q 326 335 304 349 q 365 323 343 324 q 461 329 386 322 q 614 340 569 340 q 681 326 658 339 q 724 285 713 311 q 736 206 736 260 q 746 136 735 140 q 758 114 758 132 q 744 85 757 96 q 730 79 736 78 q 710 93 724 81 q 688 107 697 106 q 654 103 678 108 q 528 96 622 93 q 397 89 439 101 q 238 75 354 76 q 136 70 158 74 q 104 56 114 67 q 64 49 85 31 q 61 92 43 67 q 64 94 63 93 q 74 112 75 106 q 63 136 74 118 q 47 222 51 154 q 39 553 43 289 q 28 976 32 947 q 32 1039 24 1007 q 28 1090 40 1069 m 258 1015 q 244 1043 258 1044 q 224 1017 229 1042 q 222 1006 222 1011 q 211 982 222 986 q 194 924 201 978 q 181 774 186 869 q 176 553 176 678 q 176 403 175 456 q 182 317 178 350 q 193 276 186 285 q 213 267 200 267 q 236 250 229 267 q 245 237 239 239 q 264 237 251 235 q 281 239 276 239 q 286 258 286 239 q 279 276 286 276 q 259 285 271 276 q 240 306 247 294 q 238 319 233 317 q 249 621 247 326 q 257 938 250 913 q 249 972 261 957 q 249 990 236 988 q 258 1015 258 996 m 696 289 q 663 293 675 314 q 643 289 656 283 q 614 282 629 294 q 558 258 600 269 q 519 242 539 253 q 489 221 500 232 q 482 203 478 210 q 538 206 485 197 q 621 204 585 213 q 668 176 657 196 q 679 163 674 165 q 696 167 685 161 q 710 184 707 174 q 710 226 713 194 q 696 289 707 274 z "},"m":{"ha":868,"x_min":13,"x_max":857,"o":"m 46 1060 l 51 1111 l 140 1111 q 217 1108 197 1111 q 253 1092 238 1104 q 276 1060 276 1074 q 294 1047 276 1047 q 336 1014 313 1047 q 433 921 400 926 q 511 983 465 915 q 569 1052 533 1018 q 629 1100 604 1086 q 751 1111 651 1111 q 843 1104 843 1111 q 838 1094 843 1101 q 825 1074 821 1078 q 835 761 829 1071 q 847 308 839 463 q 852 178 854 201 q 835 131 850 156 l 814 99 l 835 89 q 856 65 854 81 q 839 39 857 49 q 819 34 825 32 q 800 51 813 36 q 778 69 788 65 q 750 69 769 72 q 687 81 726 65 q 629 119 647 97 q 611 403 618 132 q 600 683 607 672 q 572 688 590 697 q 490 628 554 679 q 401 618 439 585 q 351 646 386 632 q 339 651 347 647 q 267 647 278 674 q 258 442 257 621 q 258 404 258 417 q 260 143 260 271 q 222 99 258 124 q 183 78 197 82 q 133 79 168 75 q 60 71 81 85 q 28 67 40 57 q 14 95 15 78 q 25 117 13 113 q 39 565 36 122 q 46 1060 40 999 m 803 1057 q 808 1057 803 1057 q 813 1066 813 1057 q 803 1075 813 1075 q 794 1066 794 1075 q 803 1057 794 1057 m 257 989 q 247 1024 254 1017 q 221 1021 239 1031 q 185 938 194 1006 q 171 649 176 869 q 174 364 168 489 q 194 217 181 239 q 213 174 201 204 q 233 149 222 149 q 240 164 240 151 q 232 194 240 179 q 218 442 222 213 q 218 631 217 585 q 226 685 219 678 q 239 811 240 694 q 249 942 238 928 q 257 989 260 956 m 807 1010 q 801 1024 804 1019 q 793 1028 799 1029 q 781 1020 788 1026 q 764 1001 774 1014 l 740 974 l 740 683 q 744 428 740 488 q 758 324 747 368 q 782 197 776 247 q 793 140 788 140 q 815 153 799 140 q 828 181 826 161 q 822 281 829 200 q 813 692 813 396 q 807 1010 813 986 m 572 932 q 569 965 578 965 q 550 929 561 963 q 514 863 538 888 q 463 839 490 839 q 432 828 429 839 q 447 817 435 821 q 483 771 465 810 q 506 736 497 743 q 536 729 514 729 l 568 729 l 567 814 q 572 932 565 896 m 295 811 q 300 811 295 811 q 304 820 304 811 q 295 829 304 829 q 286 820 286 829 q 295 811 286 811 m 631 767 q 636 767 631 767 q 640 776 640 767 q 631 785 640 785 q 622 776 622 785 q 631 767 622 767 z "},"n":{"ha":808,"x_min":14,"x_max":815,"o":"m 14 1103 q 20 1109 14 1107 q 36 1111 26 1111 q 55 1110 46 1111 q 72 1108 64 1110 q 82 1101 81 1106 q 107 1099 89 1092 q 167 1103 132 1107 q 217 1086 201 1099 q 235 1067 224 1081 q 260 1036 247 1053 q 284 1003 272 1019 q 305 974 296 988 q 315 956 314 961 q 313 932 322 942 q 326 861 306 925 q 374 739 346 797 q 438 611 422 636 q 471 578 453 586 q 491 545 496 564 q 497 460 486 526 q 514 394 507 394 q 522 485 522 394 q 512 592 522 561 q 454 685 501 622 q 387 794 426 722 q 332 907 347 867 q 326 928 324 928 q 335 921 328 928 q 397 829 350 906 q 503 677 460 731 q 556 632 546 624 q 558 894 576 649 q 553 1004 551 981 q 565 1049 554 1028 q 619 1096 585 1082 q 719 1110 653 1110 q 790 1092 814 1110 l 788 1089 q 778 790 779 1085 q 783 335 776 494 q 787 199 788 236 q 778 146 786 161 q 769 121 769 131 q 776 99 769 111 q 783 64 788 78 q 758 49 776 47 q 731 68 740 51 q 719 81 724 81 q 697 72 714 82 q 676 62 683 63 q 660 69 669 61 q 572 149 597 122 q 532 203 546 175 q 466 315 513 239 q 385 442 419 390 q 278 567 299 564 q 261 551 268 568 q 272 351 257 538 q 282 188 282 218 q 271 138 282 157 q 222 92 253 108 q 161 81 190 75 q 131 81 142 85 q 103 62 119 78 q 80 44 88 46 q 64 49 72 42 q 51 76 53 60 q 60 100 50 93 q 65 139 71 107 q 54 439 60 172 q 40 838 51 683 q 31 975 32 946 q 36 1039 31 1004 q 28 1083 43 1071 q 14 1103 14 1096 m 233 1004 q 201 1003 224 1043 q 178 939 189 981 q 181 560 161 879 q 224 178 200 240 q 233 161 229 163 q 244 168 238 160 q 252 202 253 176 q 240 313 251 228 q 228 468 229 400 q 231 717 226 536 q 233 1004 238 992 m 763 958 q 765 997 771 976 q 743 1018 760 1017 q 711 993 718 1022 q 699 671 699 947 q 701 447 699 536 q 710 303 704 358 q 724 224 715 247 q 746 203 732 201 q 754 572 751 204 q 763 958 756 944 z "},"o":{"ha":703,"x_min":10,"x_max":694,"o":"m 111 1101 q 129 1107 106 1106 q 338 1108 171 1110 l 578 1107 l 625 1046 q 672 965 660 1001 q 689 841 683 929 q 688 601 694 753 q 674 360 683 435 q 645 244 665 286 q 576 161 625 203 l 544 135 l 561 108 q 572 85 572 90 q 561 71 572 79 q 535 60 543 58 q 514 82 526 61 q 492 101 503 99 q 435 100 481 104 q 360 85 369 93 q 313 81 350 76 q 254 96 275 85 q 217 86 236 106 q 179 68 200 71 q 151 76 158 65 q 157 104 146 86 q 158 128 164 118 q 121 171 151 139 q 75 225 75 217 q 57 256 75 235 q 28 344 35 290 q 17 635 22 397 q 21 911 10 871 q 26 934 22 919 q 32 959 29 949 q 36 975 35 969 q 71 1038 40 994 q 114 1088 101 1082 q 111 1101 125 1092 m 547 1033 q 512 1057 526 1057 q 526 1028 497 1057 q 561 1006 553 1000 q 547 1033 568 1011 m 644 965 q 613 1006 625 999 q 581 999 600 1013 q 568 981 568 989 q 579 942 568 972 q 599 694 593 897 q 593 418 604 490 q 594 318 583 353 l 607 285 l 628 307 q 647 358 647 328 q 650 444 647 399 q 653 547 650 450 q 660 711 657 643 l 665 925 l 644 965 m 224 939 q 186 957 208 957 q 166 954 168 957 q 162 925 164 951 q 153 886 160 899 q 146 682 146 875 q 151 417 146 489 q 160 363 156 378 q 172 335 164 347 q 207 294 181 322 q 299 144 275 221 q 304 131 300 138 q 314 119 308 124 q 324 114 319 115 q 336 117 335 113 q 333 140 338 122 q 332 279 325 179 q 327 303 333 300 q 281 307 321 306 q 253 308 263 307 q 238 310 244 308 q 233 315 232 311 q 235 324 233 318 q 225 363 240 342 q 210 632 210 386 q 225 900 210 878 q 235 922 236 915 q 224 939 235 928 m 406 907 q 353 919 388 918 q 299 911 318 921 q 267 872 283 901 q 257 838 260 860 q 253 771 254 815 q 251 625 251 726 q 253 478 251 521 q 262 403 254 436 q 280 363 269 369 q 317 350 290 357 q 381 340 357 338 q 426 361 404 343 l 451 383 l 451 610 q 448 790 451 738 q 436 867 444 843 q 406 907 428 892 m 492 421 q 497 421 492 421 q 501 453 501 421 q 492 485 501 485 q 483 453 483 485 q 492 421 483 421 m 365 249 q 370 249 365 249 q 375 258 375 249 q 365 267 375 267 q 356 258 356 267 q 365 249 356 249 z "},"p":{"ha":706,"x_min":14,"x_max":703,"o":"m 14 1044 q 60 1111 36 1078 l 550 1111 l 585 1076 q 631 1018 621 1039 q 691 790 703 893 q 582 596 679 686 q 488 533 531 547 q 354 517 446 518 q 238 508 251 517 q 228 476 229 504 q 233 363 228 447 q 238 199 239 222 q 224 82 233 89 q 215 78 221 79 q 183 88 199 75 q 122 101 168 101 q 63 88 76 101 q 31 81 44 74 q 24 122 17 86 q 24 167 29 157 q 15 610 19 174 l 14 1044 m 608 997 q 556 1029 593 1013 q 514 1040 519 1046 q 527 1016 508 1036 q 568 970 546 996 q 590 929 590 944 q 600 907 590 913 q 608 882 608 903 q 621 840 610 860 q 627 815 629 826 q 613 778 625 804 q 610 711 583 715 q 637 742 619 711 q 654 790 654 774 q 663 817 654 811 q 664 895 683 829 q 608 997 644 961 m 211 979 q 200 993 207 993 q 188 979 192 993 q 190 961 185 965 q 209 962 201 956 q 211 979 217 968 m 172 924 q 139 931 144 946 q 139 842 135 915 q 148 648 142 794 q 162 388 154 501 q 178 232 169 274 q 192 213 182 213 q 196 379 201 213 q 199 617 190 543 q 199 799 206 689 q 188 890 193 867 q 172 924 183 913 m 403 908 q 324 920 367 922 q 261 900 281 918 q 242 872 247 888 q 233 814 236 856 q 231 757 229 768 q 247 738 233 746 q 333 733 265 728 q 426 753 401 739 q 461 793 451 764 q 459 860 475 829 q 403 908 443 890 z "},"q":{"ha":744,"x_min":13,"x_max":733,"o":"m 94 1071 l 128 1111 l 349 1111 q 541 1108 507 1111 q 592 1092 575 1106 q 614 1063 614 1072 q 639 1018 614 1057 q 674 943 665 981 q 679 749 681 913 q 668 439 678 585 q 665 322 663 342 q 682 283 667 303 q 698 256 694 268 q 699 224 701 244 q 697 197 694 201 q 713 196 699 193 q 728 195 725 200 q 732 169 732 190 q 724 134 732 149 q 686 93 715 119 q 641 55 653 60 q 597 54 629 50 q 538 76 556 60 q 488 106 507 103 q 432 99 469 110 q 358 88 386 83 q 303 98 344 92 q 227 111 261 104 q 178 126 193 118 q 151 136 158 136 q 133 128 144 136 q 88 118 108 104 q 86 158 68 132 q 96 191 97 176 q 82 210 94 206 q 47 264 68 215 q 21 353 26 313 q 14 675 13 417 q 24 942 15 933 q 33 971 33 951 q 47 1002 33 990 q 60 1022 60 1014 q 94 1071 60 1029 m 388 1097 q 383 1101 388 1100 q 374 1101 379 1103 q 367 1096 369 1099 q 360 1078 360 1090 q 371 1075 360 1064 l 374 1078 q 388 1097 388 1092 m 432 1065 q 456 1086 456 1076 q 438 1093 456 1093 q 414 1075 414 1093 q 417 1061 414 1063 q 432 1065 421 1060 m 496 1065 q 482 1075 496 1075 q 468 1071 468 1075 q 486 1061 468 1067 q 496 1065 496 1060 m 583 1046 q 551 1057 569 1053 q 519 1061 532 1061 q 506 1057 506 1061 q 554 999 506 1047 q 599 945 603 949 q 592 688 596 942 q 579 389 586 432 q 586 333 568 329 q 600 342 593 335 q 625 423 615 358 q 647 657 635 488 q 658 881 658 829 q 646 947 658 933 q 621 999 632 964 q 583 1046 607 1035 m 224 942 q 210 971 224 954 q 197 985 199 985 q 201 971 196 985 q 208 942 208 950 q 216 929 208 929 q 224 942 224 929 m 408 901 q 351 919 385 919 q 293 903 317 919 q 256 829 264 879 q 249 607 249 779 l 246 394 l 272 369 q 331 344 296 344 q 366 347 353 346 q 393 352 379 347 q 414 363 407 357 q 428 385 421 369 q 438 417 435 401 q 443 466 440 433 q 447 530 446 499 q 449 615 447 561 q 444 829 451 779 q 408 901 438 879 m 194 897 q 167 911 175 911 q 160 810 160 911 q 174 331 153 331 q 198 347 189 331 q 201 386 207 364 q 196 441 196 419 q 204 589 196 463 q 214 814 214 746 q 210 874 214 860 q 194 897 207 888 m 260 297 q 252 315 260 304 q 234 332 244 325 q 217 339 224 339 q 206 332 213 339 q 193 315 199 325 q 188 300 188 306 q 251 253 188 296 q 318 220 304 219 q 332 258 332 221 q 318 295 332 283 q 286 296 304 307 q 265 286 269 286 q 260 297 260 286 m 704 135 q 706 138 704 135 q 708 147 707 142 q 711 156 710 151 q 711 164 713 161 q 707 167 710 167 q 693 144 699 167 q 697 131 689 131 q 704 135 704 131 z "},"r":{"ha":721,"x_min":8,"x_max":710,"o":"m 21 1106 q 321 1110 21 1113 q 611 1100 588 1110 q 614 1072 628 1094 q 610 1065 613 1071 q 605 1048 603 1054 q 622 1029 607 1042 q 644 1007 636 1019 q 660 976 653 994 q 675 947 668 958 q 703 864 693 924 q 709 803 710 825 q 697 739 708 781 q 585 558 672 632 q 539 499 539 521 q 617 342 539 476 q 693 194 693 208 q 676 143 693 182 q 663 108 664 118 q 671 88 663 99 q 683 65 683 71 q 665 49 682 58 q 646 44 654 42 q 624 58 638 46 q 568 78 603 79 q 542 78 553 76 q 521 88 532 81 q 490 113 510 96 q 449 158 449 150 q 431 193 449 169 q 339 356 410 224 q 256 494 263 494 q 249 372 247 493 q 260 217 250 251 q 265 176 267 189 q 253 142 264 164 q 131 78 217 75 q 64 63 89 79 q 40 51 46 51 q 24 61 35 50 q 18 96 8 75 q 29 579 25 114 q 42 1054 33 1044 q 35 1083 50 1064 q 21 1106 21 1103 m 312 1039 q 316 1039 312 1039 q 321 1052 321 1039 q 312 1065 321 1065 q 303 1052 303 1065 q 312 1039 303 1039 m 586 1003 q 561 968 485 1047 q 599 905 588 942 q 617 790 610 868 q 617 732 621 747 q 594 688 614 717 q 585 631 556 631 q 613 664 593 631 q 644 706 635 700 q 657 726 657 713 q 671 772 657 740 q 681 840 683 797 q 664 921 679 882 q 635 972 651 956 q 586 1003 619 989 m 204 961 q 191 972 196 969 q 182 971 186 975 q 174 956 178 967 q 167 924 171 944 q 158 817 158 876 q 167 521 158 757 q 180 282 174 335 q 201 224 186 229 q 208 227 206 222 q 210 249 210 232 q 210 294 211 267 q 207 368 210 321 q 213 593 201 522 q 219 660 218 638 q 221 694 221 682 q 219 742 221 706 q 217 822 217 778 q 204 961 215 946 m 431 869 q 399 892 414 886 q 350 900 383 897 q 303 900 317 903 q 278 886 289 897 q 254 826 263 872 q 250 743 246 781 q 256 724 251 729 q 269 715 260 718 q 304 708 279 713 q 446 757 401 692 q 431 869 483 814 m 258 649 q 262 649 258 649 q 267 658 267 649 q 258 667 267 667 q 249 658 249 667 q 258 649 249 649 m 549 644 q 542 649 549 649 q 527 647 535 649 q 517 640 519 644 q 521 636 514 638 q 549 644 540 636 m 493 617 q 500 629 503 629 q 469 615 497 629 q 441 594 444 603 q 449 567 438 586 q 443 539 457 550 q 435 521 431 528 q 433 515 438 517 q 422 513 429 513 q 403 504 404 513 q 417 485 401 496 q 435 454 428 475 q 457 413 443 432 q 479 378 457 413 q 517 321 501 343 q 594 213 557 260 q 643 167 632 167 q 660 192 654 167 q 614 303 664 217 q 532 418 561 388 q 503 461 503 447 q 479 492 503 474 q 463 511 464 504 q 468 533 461 518 q 468 568 479 557 q 458 591 457 579 q 470 603 458 603 q 493 617 482 603 m 225 197 q 211 203 214 226 q 218 151 207 167 q 222 149 219 149 q 230 165 229 149 q 225 197 231 182 z "},"s":{"ha":715,"x_min":10,"x_max":706,"o":"m 90 1069 l 124 1110 q 611 1107 368 1108 l 629 1079 q 662 1008 657 1032 q 653 950 667 983 q 623 904 644 928 q 578 868 601 881 q 543 864 554 856 q 504 871 531 869 q 433 903 478 871 q 297 913 350 963 q 293 817 251 869 q 431 735 314 790 q 640 593 578 664 q 703 426 701 522 q 636 226 704 310 q 608 187 611 196 q 614 167 604 178 q 625 133 629 150 q 602 114 622 115 q 572 129 582 113 q 551 148 564 147 q 508 133 538 149 q 431 117 478 117 q 376 110 382 117 q 322 104 368 101 q 232 117 275 107 l 179 132 l 154 107 q 131 90 138 92 q 114 94 124 88 q 101 120 101 104 q 113 149 100 136 q 117 160 119 156 q 103 174 115 165 q 71 233 85 188 q 61 306 57 279 q 83 344 67 331 q 100 372 100 361 q 131 399 100 385 q 192 413 163 413 q 274 379 225 413 q 344 344 317 351 q 400 349 372 338 q 444 397 436 364 q 428 460 451 429 q 279 547 408 485 q 159 611 189 592 q 93 672 129 631 q 37 745 54 714 q 15 817 19 776 q 19 908 10 857 q 43 994 32 985 q 56 1017 56 1004 q 90 1069 56 1028 m 585 1068 q 453 1088 558 1083 q 351 1087 375 1089 q 328 1076 328 1085 q 396 1063 328 1065 q 457 1038 432 1060 q 515 1003 471 1024 q 574 969 560 983 q 604 949 592 950 q 632 965 617 949 q 642 985 643 978 q 631 1018 642 993 q 585 1068 611 1054 m 244 989 q 222 1002 235 1003 q 210 989 210 1001 q 189 954 210 974 q 156 906 168 935 q 152 869 149 886 q 178 800 156 853 l 211 722 l 239 754 q 260 783 258 775 q 254 797 263 790 q 233 843 240 807 q 208 882 226 878 q 193 894 192 886 q 215 921 194 901 q 244 989 264 967 m 392 976 q 356 983 390 983 q 301 974 322 982 q 283 963 282 967 q 340 964 289 957 q 392 976 392 971 m 419 947 q 428 956 428 947 q 413 965 428 965 q 408 954 396 965 l 419 947 m 285 685 q 385 639 289 685 q 483 593 481 593 q 517 575 488 593 q 554 561 546 557 q 564 551 564 568 q 596 488 564 535 l 628 440 l 608 363 q 593 279 589 285 q 651 363 611 263 q 654 367 653 364 l 656 374 q 660 408 667 393 q 664 435 654 425 q 664 494 672 446 q 633 564 656 538 q 569 607 611 590 q 372 699 475 646 q 296 724 335 717 q 251 722 257 732 q 253 708 249 718 q 268 692 258 699 q 285 685 278 685 m 269 294 q 268 279 263 285 q 281 282 276 271 q 281 294 283 288 q 276 303 278 303 q 269 294 274 303 m 318 249 q 328 258 328 249 q 324 267 328 267 q 314 257 319 267 q 318 249 314 250 m 418 229 q 410 244 418 240 q 400 241 400 250 q 410 226 400 232 q 418 229 418 221 z "},"t":{"ha":896,"x_min":10,"x_max":885,"o":"m 50 1097 q 56 1105 46 1103 q 110 1108 65 1107 q 231 1110 156 1110 q 453 1111 306 1111 l 865 1111 l 871 1082 q 883 1010 882 1029 q 876 989 883 992 q 867 985 871 985 q 860 989 863 985 q 857 1001 858 993 q 856 1021 856 1008 q 831 1063 856 1049 q 792 1067 813 1071 q 697 1039 772 1064 q 588 993 592 1004 q 601 978 583 982 q 707 983 628 974 q 787 992 768 992 q 824 982 806 992 q 858 971 853 967 q 872 961 872 981 q 858 925 872 940 q 693 871 815 881 q 683 869 690 871 q 640 866 653 867 q 613 856 628 865 q 594 839 597 846 q 585 802 590 832 q 580 749 581 772 q 579 665 579 725 q 579 646 579 653 q 583 318 575 469 q 583 149 593 175 q 578 124 576 132 q 589 106 579 117 q 603 80 603 90 q 590 58 603 69 q 576 52 582 51 q 560 61 569 53 q 463 73 546 74 q 364 58 381 72 q 332 58 350 47 q 314 81 314 68 q 332 107 314 94 q 347 129 351 119 q 338 474 343 135 q 319 833 333 813 q 181 867 297 867 q 118 875 124 867 q 92 885 114 885 q 59 902 76 885 q 30 942 42 919 q 14 987 18 965 q 24 1015 10 1008 q 32 1036 32 1021 q 46 1068 32 1051 q 56 1083 56 1076 q 50 1097 57 1089 m 536 707 q 533 760 536 750 q 518 774 529 771 q 492 769 499 776 q 487 660 486 761 q 494 431 488 558 q 547 213 508 213 q 557 225 563 213 q 544 236 554 232 q 538 251 532 243 q 536 707 544 265 z "},"u":{"ha":699,"x_min":8,"x_max":690,"o":"m 19 1065 l 31 1111 l 128 1111 q 197 1110 178 1111 q 224 1105 215 1108 q 239 1090 232 1101 q 251 1014 247 1078 q 258 749 254 950 q 271 390 263 425 q 322 315 283 338 q 397 318 361 293 q 436 376 428 339 q 450 735 449 432 q 456 1011 453 944 q 468 1090 458 1078 q 483 1105 474 1101 q 510 1110 492 1108 q 575 1111 528 1111 l 671 1111 l 681 1086 q 681 858 690 1061 q 671 494 671 656 q 660 304 671 363 q 617 201 649 246 q 613 140 586 161 q 625 115 626 128 q 607 94 624 103 q 590 92 597 89 q 568 108 582 94 l 547 132 l 511 114 q 408 86 479 99 q 311 81 336 74 q 225 106 267 92 l 163 125 l 146 104 q 128 88 135 90 q 110 93 122 86 q 90 117 90 104 q 110 143 90 131 l 129 157 l 107 192 q 81 228 89 218 q 65 267 74 239 q 53 311 56 294 q 47 383 51 328 q 42 484 43 438 q 36 636 40 531 q 18 992 26 958 q 19 1065 10 1021 m 613 1092 q 597 1102 606 1103 q 589 1090 589 1101 q 604 1057 589 1079 q 614 1036 614 1044 q 607 1013 614 1028 q 590 661 596 989 q 590 328 583 335 q 604 332 596 321 q 635 553 632 369 q 658 1024 636 738 l 665 1094 l 642 1089 q 613 1092 618 1082 m 229 1064 q 208 1081 222 1076 q 188 1078 194 1086 q 181 1033 181 1072 q 171 967 181 994 q 171 663 163 942 q 190 328 179 385 q 225 252 197 292 q 267 218 253 213 q 284 251 285 225 q 267 294 283 276 q 244 332 244 318 q 235 353 244 344 q 222 686 226 363 q 228 1029 215 1010 q 229 1064 240 1047 m 335 203 q 321 221 335 221 q 310 206 307 221 q 326 188 314 186 q 335 203 335 189 z "},"v":{"ha":879,"x_min":13,"x_max":874,"o":"m 33 1106 q 106 1111 28 1111 q 201 1093 176 1111 q 240 1015 226 1075 q 324 699 263 914 q 397 467 385 485 q 439 439 413 439 q 475 451 465 439 q 599 861 493 472 q 650 1044 601 869 q 695 1096 660 1076 q 770 1113 731 1115 q 833 1086 810 1110 q 863 1017 854 1064 q 860 956 872 971 q 775 703 851 943 q 699 465 736 576 q 635 284 663 354 q 599 203 608 214 q 593 147 572 171 q 601 119 604 133 q 581 97 597 104 q 549 113 565 92 q 531 129 538 128 q 503 121 524 131 q 422 110 475 110 q 354 122 368 110 q 338 127 344 129 q 318 113 332 125 q 297 98 304 100 q 282 104 290 96 q 282 150 258 124 q 293 168 293 161 q 283 196 293 175 q 104 706 217 338 q 22 951 32 942 q 14 1003 13 963 q 26 1071 15 1043 q 33 1106 40 1101 m 214 990 q 215 1017 221 1000 q 201 1051 210 1035 q 188 1069 192 1067 q 171 1057 175 1076 q 172 1032 168 1044 q 183 952 179 1015 q 204 821 186 889 q 231 719 204 821 q 277 544 257 617 q 308 449 297 471 q 317 418 322 424 q 329 385 313 414 q 354 354 346 356 q 371 378 364 354 q 363 421 381 403 q 351 444 346 440 q 321 583 356 450 q 258 825 261 814 q 218 958 231 936 q 214 990 206 981 m 826 1057 q 796 1072 806 1079 q 779 1019 786 1065 q 757 932 775 976 q 681 659 739 881 q 622 418 622 438 q 613 388 622 397 q 610 364 601 376 q 621 363 614 358 q 640 410 628 365 q 694 584 660 486 q 743 739 728 682 q 783 866 760 800 q 822 958 807 932 q 837 1013 835 983 q 826 1057 839 1043 m 522 467 q 526 467 522 467 q 531 476 531 467 q 522 485 531 485 q 513 476 513 485 q 522 467 513 467 z "},"w":{"ha":956,"x_min":8,"x_max":943,"o":"m 19 1082 l 29 1111 l 122 1111 q 225 1097 214 1111 q 244 994 238 1081 q 265 792 251 911 q 292 583 279 672 q 308 488 304 493 q 339 476 318 475 q 371 489 360 476 q 422 520 381 501 q 481 539 464 539 q 547 507 497 539 q 636 476 607 469 q 643 483 643 478 q 661 608 643 492 q 710 1021 717 979 q 722 1076 704 1044 q 745 1102 735 1097 q 796 1110 756 1107 q 825 1110 815 1110 q 841 1109 835 1110 q 847 1105 847 1108 q 846 1097 846 1101 q 844 1086 843 1089 q 853 1086 846 1083 q 864 1101 865 1090 q 866 1106 863 1104 q 876 1110 869 1108 q 893 1111 883 1111 q 918 1108 911 1111 q 925 1094 925 1104 q 934 1071 925 1076 q 943 1021 943 1065 q 934 971 943 976 q 925 935 925 965 q 897 714 925 897 q 833 254 849 371 q 815 172 824 182 q 818 132 807 161 q 825 105 826 113 q 811 89 824 97 q 784 80 794 76 q 764 104 774 83 q 711 132 753 126 q 638 167 672 138 q 593 194 606 194 q 547 217 581 194 q 453 240 499 250 q 293 161 407 231 q 226 140 257 140 q 169 115 193 140 l 144 90 l 124 110 q 109 130 110 124 q 119 153 108 136 q 130 176 129 168 q 121 207 131 185 q 107 288 107 239 q 74 583 107 321 q 22 971 42 846 q 19 1082 10 1053 m 157 1093 q 138 1101 149 1106 q 135 1099 135 1101 q 150 1060 135 1093 q 163 957 165 1022 q 185 727 161 892 q 238 424 208 563 q 281 285 267 285 q 283 261 289 285 q 293 214 279 229 q 303 214 299 211 q 297 340 308 221 q 275 481 285 458 q 258 553 265 504 q 213 1043 214 908 q 209 1082 213 1076 q 188 1086 206 1088 q 157 1093 164 1083 m 915 1053 q 899 1074 907 1074 q 875 1051 890 1074 q 815 725 847 1008 q 784 407 786 464 q 799 349 782 350 q 835 465 824 349 q 873 774 849 611 q 911 986 897 938 q 915 1053 924 1029 m 607 432 q 561 458 607 443 q 522 468 532 468 q 510 461 513 468 q 539 421 500 436 q 561 399 561 413 q 565 389 561 393 q 575 385 569 385 q 596 401 585 385 q 607 432 607 417 m 349 431 q 354 443 365 431 q 343 449 349 449 q 335 440 335 449 q 349 431 335 431 m 568 321 q 557 358 568 358 q 550 351 554 358 q 550 314 544 343 q 563 285 556 285 q 568 321 568 285 m 788 294 q 793 294 788 294 q 797 303 797 294 q 788 313 797 313 q 779 303 779 313 q 788 294 779 294 z "},"x":{"ha":900,"x_min":11,"x_max":888,"o":"m 32 1086 l 43 1113 q 244 1107 144 1110 l 257 1079 q 281 1034 268 1051 q 351 940 293 1017 q 427 853 408 868 q 467 847 446 838 q 544 941 485 858 q 621 1064 604 1024 l 642 1111 l 768 1111 q 888 1100 888 1110 q 875 1031 881 1090 q 867 990 872 1006 q 852 957 863 974 q 819 908 842 940 q 694 726 750 817 q 639 614 639 635 q 828 335 639 569 q 857 298 849 308 q 873 276 865 288 q 881 256 881 264 q 882 241 882 249 q 881 217 882 233 q 878 99 872 153 q 865 69 881 74 q 826 85 849 64 q 775 99 807 103 q 703 110 746 93 q 656 147 661 128 q 608 226 649 171 q 523 329 567 282 q 467 376 479 376 q 424 354 450 376 q 340 245 403 336 q 276 143 276 154 q 247 108 276 132 q 214 88 228 92 q 163 88 200 85 q 111 85 125 89 q 83 69 97 82 q 24 61 46 35 q 20 91 14 72 q 42 114 26 110 q 42 167 54 119 q 36 214 35 200 q 50 251 38 228 q 117 353 68 288 q 216 494 171 425 q 269 586 261 563 q 261 638 279 613 q 152 789 239 672 q 42 933 65 906 q 17 970 21 957 q 15 1015 13 983 q 32 1086 21 1063 m 843 1079 q 793 1089 818 1118 q 768 1076 782 1074 q 744 1074 747 1078 q 749 1056 740 1069 q 753 1035 756 1044 q 736 1004 750 1025 q 668 882 664 897 q 663 849 671 869 q 647 829 656 829 q 639 811 639 829 q 618 779 639 793 q 590 728 596 765 q 581 692 586 706 q 567 665 575 679 q 553 633 560 650 q 547 597 546 611 q 558 554 547 583 q 639 418 578 506 q 760 263 700 331 q 840 194 821 194 q 861 208 861 194 q 840 258 861 221 q 750 394 822 296 q 633 542 678 492 q 603 586 603 575 q 589 614 603 597 q 579 633 578 625 q 600 667 581 640 q 630 713 611 685 q 668 767 649 740 q 707 826 692 796 q 768 914 718 851 q 850 1023 838 996 q 843 1079 863 1050 m 281 968 q 214 1029 228 1039 q 254 935 199 1015 q 322 808 322 832 q 355 717 322 799 q 396 625 388 635 q 394 581 403 614 q 381 475 382 522 q 392 417 381 428 q 414 407 406 403 q 422 613 422 414 l 422 810 l 375 858 q 281 968 326 908 m 476 775 q 480 775 476 775 q 485 789 485 775 q 476 803 485 803 q 467 789 467 803 q 476 775 467 775 m 476 739 q 480 739 476 739 q 485 748 485 739 q 476 757 485 757 q 467 748 467 757 q 476 739 467 739 m 485 613 q 490 613 485 613 q 494 644 494 613 q 485 675 494 675 q 476 644 476 675 q 485 613 476 613 z "},"y":{"ha":815,"x_min":10,"x_max":807,"o":"m 21 1083 l 26 1111 l 239 1111 l 288 1010 q 328 923 315 949 q 356 879 342 897 q 380 859 371 861 q 408 858 389 857 l 446 861 l 507 965 q 571 1089 567 1072 q 590 1104 572 1101 q 681 1110 607 1107 q 770 1109 754 1111 q 786 1094 786 1107 q 779 1082 786 1085 q 751 1079 772 1079 q 707 1088 718 1079 q 689 1089 693 1096 q 699 1078 686 1083 q 714 1042 714 1072 q 722 1011 714 1011 q 728 989 739 1011 q 713 969 722 978 q 661 903 696 954 q 600 806 626 853 q 554 738 576 763 q 539 708 532 715 q 594 742 558 689 q 728 925 692 885 q 760 976 760 963 q 773 1002 760 990 q 786 1039 786 1014 q 796 1065 786 1065 q 801 1018 806 1065 q 800 1011 800 1015 q 768 925 794 968 q 590 669 742 882 q 563 631 572 644 q 530 569 539 597 q 517 491 521 540 q 513 321 514 442 q 503 150 513 165 q 508 124 493 139 q 504 67 540 88 q 485 62 493 60 q 464 76 476 64 q 385 99 443 96 q 354 99 365 99 q 334 96 343 99 q 318 89 325 93 q 303 78 311 85 l 278 54 q 238 94 258 75 l 257 114 q 274 164 271 129 q 275 363 276 199 l 274 590 l 228 657 q 173 740 204 692 q 109 838 142 788 q 54 921 76 889 q 17 1000 24 968 q 21 1083 10 1032 m 246 1044 q 214 1075 232 1075 q 192 1061 196 1075 q 199 1024 188 1047 q 228 939 213 999 q 250 852 242 881 q 268 808 258 824 q 286 794 278 793 q 308 806 294 794 q 318 829 321 814 q 292 915 315 844 q 246 1044 258 1013 m 506 743 q 490 757 493 757 q 486 743 486 757 q 491 733 486 738 q 501 729 496 729 q 512 732 511 729 q 506 743 513 735 m 387 729 q 391 729 387 729 q 396 739 396 729 q 387 749 396 749 q 378 739 378 749 q 387 729 378 729 m 488 549 q 494 561 503 558 q 478 557 488 563 q 447 544 472 554 q 433 519 435 540 q 436 396 432 497 q 436 393 436 394 q 445 240 443 263 q 456 213 447 217 q 469 248 463 208 q 479 347 476 288 q 479 451 482 406 q 488 549 475 542 z "},"z":{"ha":750,"x_min":11,"x_max":746,"o":"m 36 1090 l 51 1110 l 383 1111 l 715 1111 l 728 1063 q 711 932 746 983 q 614 772 690 900 q 471 551 533 638 q 407 444 419 481 q 413 381 394 408 q 440 361 424 364 q 542 358 457 358 q 642 355 619 358 q 681 339 664 351 q 737 236 738 293 q 678 138 736 179 q 637 117 653 121 q 578 115 621 114 q 534 116 549 118 q 516 110 519 114 q 510 94 513 107 q 482 72 504 72 q 463 77 468 72 q 454 99 457 82 l 450 126 l 306 125 l 161 124 l 143 99 q 105 77 122 74 q 89 108 88 81 q 64 163 92 135 q 33 222 40 188 q 38 288 26 257 q 153 487 51 319 q 306 728 254 654 q 364 829 364 811 q 342 872 364 847 l 321 897 l 200 894 q 145 894 163 894 q 107 895 128 893 q 80 899 86 897 q 63 910 74 901 q 48 925 53 918 q 32 950 43 932 q 15 985 18 971 q 17 1026 13 1000 q 36 1090 21 1071 m 683 1078 q 663 1092 668 1092 q 646 1081 658 1093 q 569 1046 633 1068 q 499 1008 501 1024 q 513 1003 499 1003 q 527 996 525 1003 q 518 979 529 989 q 526 936 510 969 q 542 840 542 906 q 525 740 542 774 q 517 726 519 731 q 515 717 515 721 q 517 713 515 714 q 524 711 519 711 q 547 738 538 711 q 657 938 588 844 q 683 1078 731 1036 m 375 481 q 388 488 376 478 q 410 510 400 497 q 417 525 419 522 q 403 519 415 529 q 382 496 392 508 q 375 481 372 483 m 339 456 q 338 478 350 471 q 303 490 325 486 q 276 490 281 494 q 271 461 272 486 q 272 413 271 419 q 274 385 275 394 q 278 322 272 340 q 308 278 283 304 q 348 245 332 251 q 415 232 364 239 q 575 222 493 221 q 669 219 661 224 q 697 226 679 213 q 711 242 710 235 q 706 271 713 250 q 684 314 694 304 q 660 313 674 324 q 550 278 642 297 q 444 268 458 258 q 403 276 432 276 q 375 282 378 276 q 389 306 372 288 q 399 322 399 317 q 386 339 399 326 q 354 358 371 358 q 344 362 349 358 q 338 375 340 365 q 335 401 336 385 q 339 456 331 443 m 528 322 q 521 329 528 329 q 489 324 503 326 q 464 310 465 321 q 476 303 463 303 q 510 310 492 303 q 528 322 528 317 z "},"{":{"ha":13,"x_min":0,"x_max":0,"o":""},"|":{"ha":1415,"x_min":14,"x_max":1403,"o":"m 708 -106 q 361 -106 708 -106 q 14 -97 14 -106 q 708 -87 14 -87 q 1403 -97 1403 -87 q 708 -106 1403 -106 z "},"}":{"ha":13,"x_min":0,"x_max":0,"o":""},"~":{"ha":13,"x_min":0,"x_max":0,"o":""},"":{"ha":1415,"x_min":14,"x_max":1403,"o":"m 708 -106 q 361 -106 708 -106 q 14 -97 14 -106 q 708 -87 14 -87 q 1403 -97 1403 -87 q 708 -106 1403 -106 z "},"":{"ha":13,"x_min":0,"x_max":0,"o":""},"":{"ha":1415,"x_min":14,"x_max":1403,"o":"m 708 -106 q 361 -106 708 -106 q 14 -97 14 -106 q 708 -87 14 -87 q 1403 -97 1403 -87 q 708 -106 1403 -106 z "},"":{"ha":1415,"x_min":14,"x_max":1403,"o":"m 708 -106 q 361 -106 708 -106 q 14 -97 14 -106 q 708 -87 14 -87 q 1403 -97 1403 -87 q 708 -106 1403 -106 z "},"":{"ha":13,"x_min":0,"x_max":0,"o":""},"":{"ha":13,"x_min":0,"x_max":0,"o":""},"":{"ha":13,"x_min":0,"x_max":0,"o":""},"":{"ha":13,"x_min":0,"x_max":0,"o":""},"":{"ha":13,"x_min":0,"x_max":0,"o":""},"":{"ha":13,"x_min":0,"x_max":0,"o":""},"":{"ha":13,"x_min":0,"x_max":0,"o":""},"":{"ha":13,"x_min":0,"x_max":0,"o":""},"":{"ha":13,"x_min":0,"x_max":0,"o":""},"":{"ha":13,"x_min":0,"x_max":0,"o":""},"":{"ha":13,"x_min":0,"x_max":0,"o":""},"":{"ha":13,"x_min":0,"x_max":0,"o":""},"":{"ha":13,"x_min":0,"x_max":0,"o":""},"":{"ha":13,"x_min":0,"x_max":0,"o":""},"":{"ha":13,"x_min":0,"x_max":0,"o":""},"":{"ha":13,"x_min":0,"x_max":0,"o":""},"":{"ha":13,"x_min":0,"x_max":0,"o":""},"":{"ha":13,"x_min":0,"x_max":0,"o":""},"":{"ha":13,"x_min":0,"x_max":0,"o":""},"":{"ha":13,"x_min":0,"x_max":0,"o":""},"":{"ha":13,"x_min":0,"x_max":0,"o":""},"":{"ha":13,"x_min":0,"x_max":0,"o":""},"":{"ha":13,"x_min":0,"x_max":0,"o":""},"":{"ha":13,"x_min":0,"x_max":0,"o":""},"":{"ha":13,"x_min":0,"x_max":0,"o":""},"":{"ha":13,"x_min":0,"x_max":0,"o":""},"":{"ha":13,"x_min":0,"x_max":0,"o":""},"":{"ha":13,"x_min":0,"x_max":0,"o":""},"":{"ha":13,"x_min":0,"x_max":0,"o":""},"":{"ha":13,"x_min":0,"x_max":0,"o":""},"":{"ha":13,"x_min":0,"x_max":0,"o":""},"":{"ha":13,"x_min":0,"x_max":0,"o":""},"":{"ha":13,"x_min":0,"x_max":0,"o":""},"":{"ha":13,"x_min":0,"x_max":0,"o":""},"":{"ha":13,"x_min":0,"x_max":0,"o":""},"":{"ha":13,"x_min":0,"x_max":0,"o":""},"":{"ha":13,"x_min":0,"x_max":0,"o":""},"":{"ha":13,"x_min":0,"x_max":0,"o":""},"":{"ha":1415,"x_min":14,"x_max":1403,"o":"m 708 -106 q 361 -106 708 -106 q 14 -97 14 -106 q 708 -87 14 -87 q 1403 -97 1403 -87 q 708 -106 1403 -106 z "},"":{"ha":13,"x_min":0,"x_max":0,"o":""},"":{"ha":13,"x_min":0,"x_max":0,"o":""},"":{"ha":13,"x_min":0,"x_max":0,"o":""},"":{"ha":1415,"x_min":14,"x_max":1403,"o":"m 708 -106 q 361 -106 708 -106 q 14 -97 14 -106 q 708 -87 14 -87 q 1403 -97 1403 -87 q 708 -106 1403 -106 z "},"":{"ha":13,"x_min":0,"x_max":0,"o":""}}}
